<svg xmlns="http://www.w3.org/2000/svg" xmlns:xlink="http://www.w3.org/1999/xlink" width="64" height="64" viewBox="0 0 64 64"><defs><path id="tfhbb" d="M985 510h-1a8 8 0 0 1-8-8h2a6 6 0 0 0 6 6h1z"/><path id="tfhba" d="M976 531h64v-64h-64z"/><path id="tfhbd" d="M993 510h30v-2h-30z"/><path id="tfhbe" d="M1032 510h-1v-2h1a6 6 0 0 0 6-6h2a8 8 0 0 1-8 8"/><path id="tfhbf" d="M1039 531h-62a1 1 0 0 1-1-1v-40a1 1 0 0 1 1-1h62a1 1 0 0 1 1 1v40a1 1 0 0 1-1 1zm-61-2h60v-38h-60z"/><path id="tfhbg" d="M1003 506h10v-2h-10z"/><path id="tfhbh" d="M1007 502h2v-2h-2z"/><path id="tfhbi" d="M993 505h-2v-16h-4v16h-2v-17a1 1 0 0 1 1-1h6a1 1 0 0 1 1 1z"/><path id="tfhbj" d="M985 530h2v-17h-2z"/><path id="tfhbk" d="M991 530h2v-17h-2z"/><path id="tfhbl" d="M988 502h2v-2h-2z"/><path id="tfhbm" d="M988 518h2v-2h-2z"/><path id="tfhbn" d="M988 522h2v-2h-2z"/><path id="tfhbo" d="M993 514h-8a1 1 0 0 1-1-1v-8a1 1 0 0 1 1-1h8a1 1 0 0 1 1 1v8a1 1 0 0 1-1 1zm-7-2h6v-6h-6z"/><path id="tfhbp" d="M988 513h2v-5h-2z"/><path id="tfhbq" d="M1023 530h2v-17h-2z"/><path id="tfhbr" d="M1029 530h2v-17h-2z"/><path id="tfhbs" d="M1031 505h-2v-16h-4v16h-2v-17a1 1 0 0 1 1-1h6a1 1 0 0 1 1 1z"/><path id="tfhbt" d="M1031 514h-8a1 1 0 0 1-1-1v-8a1 1 0 0 1 1-1h8a1 1 0 0 1 1 1v8a1 1 0 0 1-1 1zm-7-2h6v-6h-6z"/><path id="tfhbu" d="M1026 513h2v-5h-2z"/><path id="tfhbv" d="M1026 502h2v-2h-2z"/><path id="tfhbw" d="M1026 518h2v-2h-2z"/><path id="tfhbx" d="M1026 522h2v-2h-2z"/><path id="tfhby" d="M1020 491h-24a1 1 0 0 1-1-1v-6a4 4 0 0 1 4-4v2a2 2 0 0 0-2 2v5h22v-5a2 2 0 0 0-2-2v-2a4 4 0 0 1 4 4v6a1 1 0 0 1-1 1"/><path id="tfhbz" d="M1004 487a3 3 0 0 1-3-3v-6h2v6a1 1 0 0 0 1 1z"/><path id="tfhbA" d="M1016 487v-2a1 1 0 0 0 1-1v-6.82l-2.94-7.83a1 1 0 0 1-.06-.35v-2h2v1.82l2.94 7.83a1 1 0 0 1 .06.35v7a3 3 0 0 1-3 3"/><path id="tfhbB" d="M1000 484a3 3 0 0 1-3-3v-5c0-.2.06-.4.17-.56l3.83-5.74V467h2v3a1 1 0 0 1-.17.56L999 476.3v4.7a1 1 0 0 0 2 0h2a3 3 0 0 1-3 3"/><path id="tfhbC" d="M1016 487h-1a1 1 0 1 1 0-2h1a1 1 0 1 1 0 2"/><path id="tfhbD" d="M1013 487h-2a1 1 0 1 1 0-2h2a1 1 0 1 1 0 2"/><path id="tfhbE" d="M1009 487h-2a1 1 0 1 1 0-2h2a1 1 0 1 1 0 2"/><path id="tfhbF" d="M1005 487h-1a1 1 0 1 1 0-2h1a1 1 0 1 1 0 2"/><path id="tfhbG" d="M1014 486a1 1 0 0 1-1-1v-1a1 1 0 1 1 2 0v1a1 1 0 0 1-1 1"/><path id="tfhbH" d="M1010 486a1 1 0 0 1-1-1v-1a1 1 0 1 1 2 0v1a1 1 0 0 1-1 1"/><path id="tfhbI" d="M1006 486a1 1 0 0 1-1-1v-1a1 1 0 1 1 2 0v1a1 1 0 0 1-1 1"/><clipPath id="tfhbc"><use xlink:href="#tfhba"/></clipPath></defs><g><g transform="translate(-976 -467)"><g><use fill="#253242" xlink:href="#tfhbb"/></g><g/><g clip-path="url(#tfhbc)"><use fill="#253242" xlink:href="#tfhbd"/></g><g clip-path="url(#tfhbc)"><use fill="#253242" xlink:href="#tfhbe"/></g><g clip-path="url(#tfhbc)"><use fill="#253242" xlink:href="#tfhbf"/></g><g clip-path="url(#tfhbc)"><use fill="#253242" xlink:href="#tfhbg"/></g><g clip-path="url(#tfhbc)"><use fill="#253242" xlink:href="#tfhbh"/></g><g clip-path="url(#tfhbc)"><use fill="#253242" xlink:href="#tfhbi"/></g><g clip-path="url(#tfhbc)"><use fill="#253242" xlink:href="#tfhbj"/></g><g clip-path="url(#tfhbc)"><use fill="#253242" xlink:href="#tfhbk"/></g><g clip-path="url(#tfhbc)"><use fill="#253242" xlink:href="#tfhbl"/></g><g clip-path="url(#tfhbc)"><use fill="#253242" xlink:href="#tfhbm"/></g><g clip-path="url(#tfhbc)"><use fill="#253242" xlink:href="#tfhbn"/></g><g clip-path="url(#tfhbc)"><use fill="#253242" xlink:href="#tfhbo"/></g><g clip-path="url(#tfhbc)"><use fill="#253242" xlink:href="#tfhbp"/></g><g clip-path="url(#tfhbc)"><use fill="#253242" xlink:href="#tfhbq"/></g><g clip-path="url(#tfhbc)"><use fill="#253242" xlink:href="#tfhbr"/></g><g clip-path="url(#tfhbc)"><use fill="#253242" xlink:href="#tfhbs"/></g><g clip-path="url(#tfhbc)"><use fill="#253242" xlink:href="#tfhbt"/></g><g clip-path="url(#tfhbc)"><use fill="#253242" xlink:href="#tfhbu"/></g><g clip-path="url(#tfhbc)"><use fill="#253242" xlink:href="#tfhbv"/></g><g clip-path="url(#tfhbc)"><use fill="#253242" xlink:href="#tfhbw"/></g><g clip-path="url(#tfhbc)"><use fill="#253242" xlink:href="#tfhbx"/></g><g clip-path="url(#tfhbc)"><use fill="#253242" xlink:href="#tfhby"/></g><g clip-path="url(#tfhbc)"><use fill="#253242" xlink:href="#tfhbz"/></g><g clip-path="url(#tfhbc)"><use fill="#253242" xlink:href="#tfhbA"/></g><g clip-path="url(#tfhbc)"><use fill="#253242" xlink:href="#tfhbB"/></g><g clip-path="url(#tfhbc)"><use fill="#253242" xlink:href="#tfhbC"/></g><g clip-path="url(#tfhbc)"><use fill="#253242" xlink:href="#tfhbD"/></g><g clip-path="url(#tfhbc)"><use fill="#253242" xlink:href="#tfhbE"/></g><g clip-path="url(#tfhbc)"><use fill="#253242" xlink:href="#tfhbF"/></g><g clip-path="url(#tfhbc)"><use fill="#253242" xlink:href="#tfhbG"/></g><g clip-path="url(#tfhbc)"><use fill="#253242" xlink:href="#tfhbH"/></g><g clip-path="url(#tfhbc)"><use fill="#253242" xlink:href="#tfhbI"/></g></g></g></svg>