<svg xmlns="http://www.w3.org/2000/svg" xmlns:xlink="http://www.w3.org/1999/xlink" width="20" height="20" viewBox="0 0 20 20"><defs><path id="cbxua" d="M1562 114h4a2 2 0 0 1-.15.78 2.03 2.03 0 0 1-1.84 1.22c-1.11 0-2-.9-2.01-2zm8-4.5l2 2v1h-16v-1l2-2v-5c0-3.08 1.63-5.64 4.5-6.32v-.68a1.5 1.5 0 1 1 3 0v.68c2.86.68 4.5 3.25 4.5 6.32zm-2-11.07l1.42-1.43a10.49 10.49 0 0 1 4.12 7.85h-2a8.5 8.5 0 0 0-3.54-6.42zm-8.45 0a8.45 8.45 0 0 0-3.55 6.42h-2c.14-3.2 1.72-6.02 4.12-7.85z"/></defs><g><g transform="translate(-1554 -96)"><g><use fill="#0074e4" xlink:href="#cbxua"/></g></g></g></svg>