<?xml version="1.0" encoding="utf-8"?>
<!-- Generator: Adobe Illustrator 19.2.1, SVG Export Plug-In . SVG Version: 6.00 Build 0)  -->
<svg version="1.1" id="Layer_1" xmlns="http://www.w3.org/2000/svg" xmlns:xlink="http://www.w3.org/1999/xlink" x="0px" y="0px"
	 viewBox="0 0 60 54" style="enable-background:new 0 0 60 54;" xml:space="preserve">
<style type="text/css">
	.st0{fill:#363F40;}
</style>
<g id="_x31__x5F_certificate" transform="translate(1216.000000, 1712.000000)">
	<path id="Shape" class="st0" d="M-1160-1712h-46c-2.2,0-4,1.8-4,4v32h-5c-0.6,0-1,0.4-1,1c0,2.2,1.8,4,4,4h29v12c0,0.6,0.4,1,1,1
		c0.3,0,0.5-0.1,0.7-0.3l5.3-5.3l5.3,5.3c0.2,0.2,0.4,0.3,0.7,0.3c0.1,0,0.3,0,0.4-0.1c0.4-0.2,0.6-0.5,0.6-0.9v-12h3
		c2.2,0,4-1.8,4-4v-32h5c0.6,0,1-0.4,1-1C-1156-1710.2-1157.8-1712-1160-1712z M-1164-1708v32h-4v2h3.7c-0.4,0.6-1,1-1.7,1h-3v-1h-2
		v12.6l-4.3-4.3c-0.4-0.4-1-0.4-1.4,0l-4.3,4.3v-12.6h-2v1h-29c-0.7,0-1.4-0.4-1.7-1h4.7h25v-2h-24v-32c0-1.1,0.9-2,2-2h42.6
		C-1163.8-1709.4-1164-1708.7-1164-1708z M-1161.7-1709c0.6-1,1.8-1.3,2.7-0.7c0.3,0.2,0.6,0.4,0.7,0.7H-1161.7z"/>
	<path id="Shape_1_" class="st0" d="M-1166.6-1680.7l-1.3-2.3l1.3-2.3c0.3-0.5,0.1-1.1-0.4-1.4c0,0,0,0-0.1,0l-2.4-1.1l-0.3-2.6
		c-0.1-0.5-0.6-0.9-1.1-0.9c0,0-0.1,0-0.1,0l-2.6,0.5l-1.8-1.9c-0.4-0.4-1.1-0.4-1.5,0c0,0,0,0,0,0l-1.8,1.9l-2.6-0.5
		c-0.5-0.1-1.1,0.2-1.2,0.8c0,0,0,0.1,0,0.1l-0.3,2.6l-2.4,1.1c-0.5,0.2-0.7,0.8-0.5,1.3c0,0,0,0.1,0,0.1l1.3,2.3l-1.3,2.3
		c-0.3,0.5-0.1,1.1,0.4,1.4c0,0,0,0,0.1,0l2.4,1.1l0.3,2.6c0.1,0.5,0.6,0.9,1.1,0.9c0,0,0.1,0,0.1,0l2.6-0.5l1.8,1.9
		c0.4,0.4,1,0.4,1.4,0.1c0,0,0,0,0.1-0.1l1.8-1.9l2.6,0.5c0.3,0.1,0.6,0,0.8-0.2c0.2-0.2,0.4-0.4,0.4-0.7l0.3-2.6l2.4-1.1
		C-1166.5-1679.5-1166.3-1680.1-1166.6-1680.7C-1166.5-1680.7-1166.6-1680.7-1166.6-1680.7z M-1169.9-1682.5l1,1.8l-1.9,0.9
		c-0.3,0.1-0.5,0.4-0.6,0.8l-0.2,2.1l-2.1-0.4c-0.3-0.1-0.7,0-0.9,0.3l-1.4,1.5l-1.4-1.5c-0.2-0.2-0.5-0.3-0.7-0.3
		c-0.1,0-0.1,0-0.2,0l-2.1,0.4l-0.2-2.1c0-0.3-0.3-0.6-0.6-0.8l-1.9-0.9l1-1.8c0.2-0.3,0.2-0.7,0-1v0l-1-1.8l1.9-0.9
		c0.3-0.1,0.5-0.4,0.6-0.8l0.2-2.1l2.1,0.4c0.3,0.1,0.7,0,0.9-0.3l1.4-1.6l1.4,1.5c0.2,0.3,0.6,0.4,0.9,0.3l2.1-0.4l0.2,2.1
		c0,0.3,0.3,0.6,0.6,0.8l1.9,0.9l-1,1.8C-1170-1683.2-1170-1682.8-1169.9-1682.5z"/>
	<path id="Shape_2_" class="st0" d="M-1176-1688c-2.8,0-5,2.2-5,5c0,2.8,2.2,5,5,5c2.8,0,5-2.2,5-5S-1173.2-1688-1176-1688z
		 M-1176-1680c-1.7,0-3-1.3-3-3s1.3-3,3-3s3,1.3,3,3S-1174.3-1680-1176-1680z"/>
	<rect id="Rectangle-path" x="-1194" y="-1706" class="st0" width="16" height="2"/>
	<rect id="Rectangle-path_1_" x="-1204" y="-1700" class="st0" width="36" height="2"/>
	<rect id="Rectangle-path_2_" x="-1204" y="-1696" class="st0" width="36" height="2"/>
	<rect id="Rectangle-path_3_" x="-1203" y="-1683" class="st0" width="13" height="2"/>
</g>
</svg>
