<?xml version="1.0" encoding="UTF-8"?>
<svg width="60px" height="64px" viewBox="0 0 60 64" version="1.1" xmlns="http://www.w3.org/2000/svg" xmlns:xlink="http://www.w3.org/1999/xlink">
    <!-- Generator: Sketch 50.2 (55047) - http://www.bohemiancoding.com/sketch -->
    <title>2</title>
    <desc>Created with Sketch.</desc>
    <defs>
        <polygon id="path-1" points="0 64 60 64 60 0 0 0"></polygon>
    </defs>
    <g id="Page-1" stroke="none" stroke-width="1" fill="none" fill-rule="evenodd">
        <g id="Mainpage" transform="translate(-436.000000, -2144.000000)">
            <g id="2" transform="translate(436.000000, 2144.000000)">
                <path d="M49,64 L47,64 L47,60 L28,60 L28,64 L26,64 L26,60 C26,58.898 26.897,58 28,58 L47,58 C48.103,58 49,58.898 49,60 L49,64 Z" id="Fill-4" fill="#363F40"></path>
                <path d="M47,59 L45,59 L45,56 C45,55.176 45.261,54.167 45.591,52.89 C46.186,50.588 47,47.435 47,43 L47,36 C47,34.897 46.103,34 45,34 L45,32 C47.206,32 49,33.794 49,36 L49,43 C49,47.688 48.114,51.119 47.527,53.39 C47.232,54.53 47,55.431 47,56 L47,59 Z" id="Fill-6" fill="#363F40"></path>
                <path d="M44,36 L42,36 L42,34 C42,32.897 41.103,32 40,32 L40,30 C42.206,30 44,31.794 44,34 L44,36 Z" id="Fill-8" fill="#363F40"></path>
                <path d="M39,34 L37,34 L37,32 C37,30.897 36.103,30 35,30 L35,28 C37.206,28 39,29.794 39,32 L39,34 Z" id="Fill-10" fill="#363F40"></path>
                <path d="M27,42 C26.448,42 26,41.553 26,41 L26,20 C26,17.794 27.794,16 30,16 C32.206,16 34,17.794 34,20 L34,32 C34,32.553 33.552,33 33,33 C32.448,33 32,32.553 32,32 L32,20 C32,18.897 31.103,18 30,18 C28.897,18 28,18.897 28,20 L28,41 C28,41.553 27.552,42 27,42" id="Fill-12" fill="#363F40"></path>
                <path d="M30,59 L28,59 L28,56.333 L22.2,48.6 C22.123,48.498 22.067,48.382 22.034,48.259 C20.543,42.693 18.73,36.51 18.238,35.65 C17.588,34.957 17.427,33.95 17.819,33.005 C18.323,31.787 19.572,31 21,31 C23.52,31 24.709,34.003 24.924,34.611 L27.895,40.553 L26.105,41.447 L23.105,35.447 C23.085,35.405 23.066,35.361 23.051,35.316 C22.848,34.717 22.034,33 21,33 C20.251,33 19.813,33.415 19.666,33.77 C19.614,33.897 19.549,34.135 19.707,34.293 C20.297,34.884 21.713,39.345 23.916,47.555 L29.8,55.4 C29.93,55.573 30,55.783 30,56 L30,59 Z" id="Fill-14" fill="#363F40"></path>
                <path d="M26.5752,27.2314 C23.7962,25.9134 22.0002,23.0744 22.0002,20.0004 C22.0002,15.5884 25.5892,12.0004 30.0002,12.0004 C34.4112,12.0004 38.0002,15.5884 38.0002,20.0004 C38.0002,23.0734 36.2052,25.9114 33.4292,27.2294 L32.5712,25.4224 C34.6542,24.4334 36.0002,22.3054 36.0002,20.0004 C36.0002,16.6914 33.3082,14.0004 30.0002,14.0004 C26.6912,14.0004 24.0002,16.6914 24.0002,20.0004 C24.0002,22.3054 25.3472,24.4354 27.4322,25.4244 L26.5752,27.2314 Z" id="Fill-16" fill="#363F40"></path>
                <path d="M40.0586,26.5459 L38.3826,25.4539 C39.4406,23.8309 39.9996,21.9449 39.9996,19.9999 C39.9996,14.4859 35.5146,9.9999 29.9996,9.9999 C24.4856,9.9999 19.9996,14.4859 19.9996,19.9999 C19.9996,21.9449 20.5586,23.8309 21.6156,25.4529 L19.9396,26.5449 C18.6706,24.5979 17.9996,22.3339 17.9996,19.9999 C17.9996,13.3829 23.3836,7.9999 29.9996,7.9999 C36.6166,7.9999 41.9996,13.3829 41.9996,19.9999 C41.9996,22.3339 41.3286,24.5979 40.0586,26.5459" id="Fill-18" fill="#363F40"></path>
                <path d="M46,20 L44,20 C44,12.28 37.72,6 30,6 C22.28,6 16,12.28 16,20 L14,20 C14,11.178 21.178,4 30,4 C38.822,4 46,11.178 46,20" id="Fill-20" fill="#363F40"></path>
                <path d="M58,40 L51,40 L51,38 L58,38 L58,2 L2,2 L2,38 L15,38 L15,40 L2,40 C0.897,40 0,39.102 0,38 L0,2 C0,0.897 0.897,0 2,0 L58,0 C59.103,0 60,0.897 60,2 L60,38 C60,39.102 59.103,40 58,40" id="Fill-22" fill="#363F40"></path>
                <mask id="mask-2" fill="white">
                    <use xlink:href="#path-1"></use>
                </mask>
                <g id="Clip-25"></g>
                <polygon id="Fill-24" fill="#363F40" mask="url(#mask-2)" points="4 39 6 39 6 4 4 4"></polygon>
                <polygon id="Fill-26" fill="#363F40" mask="url(#mask-2)" points="54 36 56 36 56 1 54 1"></polygon>
            </g>
        </g>
    </g>
</svg>