<svg id="Layer_1" data-name="Layer 1" xmlns="http://www.w3.org/2000/svg" xmlns:xlink="http://www.w3.org/1999/xlink" viewBox="0 0 24 24"><defs><style>.cls-1{fill:#fff;}.cls-2{mask:url(#mask);}.cls-3{fill:#0078e8;}</style><mask id="mask" x="0" y="0" width="24" height="24" maskUnits="userSpaceOnUse"><g id="mask-2"><polygon id="path-1" class="cls-1" points="0 0 24 0 24 24 0 24 0 0"/></g></mask></defs><title>e-24</title><g class="cls-2"><path id="Shape" class="cls-3" d="M21,10.12H14.22L17,7.3a7,7,0,0,0-9.88-.1,6.88,6.88,0,0,0,0,9.79A7,7,0,0,0,17,17a6.51,6.51,0,0,0,2-4.89h2a9.34,9.34,0,0,1-2.64,6.29,9.05,9.05,0,0,1-12.72,0,8.84,8.84,0,0,1,0-12.58,9,9,0,0,1,12.65,0L21,3v7.12ZM12.5,8v4.25L16,14.33l-0.72,1.21L11,13V8h1.5Z"/></g></svg>