<svg xmlns="http://www.w3.org/2000/svg" xmlns:xlink="http://www.w3.org/1999/xlink" width="30" height="30" viewBox="0 0 30 30"><defs><path id="bbfha" d="M49.73 25.23a.94.94 0 0 0-1.77-.22c-.3.66-.95 1.12-1.7 1.11-.85 0-1.56-.56-1.8-1.34a.94.94 0 0 0-1.1-.64 3.76 3.76 0 0 1-4.5-4.5.94.94 0 0 0-.64-1.1 1.87 1.87 0 0 1-1.34-1.79c0-.76.45-1.4 1.1-1.7a.94.94 0 0 0-.2-1.78A15.02 15.02 0 0 0 20 28c0 8.27 6.72 15 14.99 15a15.02 15.02 0 0 0 14.73-17.77z"/><path id="bbfhb" d="M29 21a2 2 0 1 1 4 0 2 2 0 0 1-4 0z"/><path id="bbfhc" d="M26 28a2 2 0 1 1 4 0 2 2 0 0 1-4 0z"/><path id="bbfhd" d="M36 36a2 2 0 1 1 4 0 2 2 0 0 1-4 0z"/><path id="bbfhe" d="M36 29.5a.5.5 0 1 1 1 0 .5.5 0 0 1-1 0z"/><path id="bbfhf" d="M42 33.5a.5.5 0 1 1 1 0 .5.5 0 0 1-1 0z"/><path id="bbfhg" d="M29 34.5a.5.5 0 1 1 1 0 .5.5 0 0 1-1 0z"/></defs><g><g transform="translate(-20 -13)"><g><use fill="#fff" xlink:href="#bbfha"/></g><g><use fill="#4a90e2" xlink:href="#bbfhb"/></g><g><use fill="#4a90e2" xlink:href="#bbfhc"/></g><g><use fill="#4a90e2" xlink:href="#bbfhd"/></g><g><use fill="#4a90e2" xlink:href="#bbfhe"/></g><g><use fill="#4a90e2" xlink:href="#bbfhf"/></g><g><use fill="#4a90e2" xlink:href="#bbfhg"/></g></g></g></svg>