<svg xmlns="http://www.w3.org/2000/svg" xmlns:xlink="http://www.w3.org/1999/xlink" width="64" height="64" viewBox="0 0 64 64"><defs><path id="vu0hb" d="M1110 2195c-12.13 0-22-9.87-22-22s9.87-22 22-22 22 9.87 22 22-9.87 22-22 22m0-42c-11.03 0-20 8.97-20 20s8.97 20 20 20 20-8.97 20-20-8.97-20-20-20"/><path id="vu0ha" d="M1078 2205h64v-64h-64z"/><path id="vu0hd" d="M1109 2159h2v-17h-2z"/><path id="vu0he" d="M1113.29 2146.7l-3.3-3.29-3.29 3.3-1.41-1.42 4-4a1 1 0 0 1 1.41 0l4 4z"/><path id="vu0hf" d="M1109 2204h2v-16h-2z"/><path id="vu0hg" d="M1110 2205a1 1 0 0 1-.71-.3l-4-4 1.41-1.41 3.3 3.3 3.29-3.3 1.41 1.41-4 4a1 1 0 0 1-.7.3"/><path id="vu0hh" d="M1079 2174h16v-2h-16z"/><path id="vu0hi" d="M1082.3 2177.7l-4-4a1 1 0 0 1 0-1.41l4-4 1.4 1.41-3.29 3.3 3.3 3.29z"/><path id="vu0hj" d="M1125 2174h16v-2h-16z"/><path id="vu0hk" d="M1137.7 2177.7l-1.41-1.41 3.3-3.3-3.3-3.29 1.41-1.41 4 4a1 1 0 0 1 0 1.41z"/><path id="vu0hl" d="M1098.22 2162.64l-12.61-12.6 1.42-1.42 12.6 12.6z"/><path id="vu0hm" d="M1087 2155h-2v-6a1 1 0 0 1 1-1h6v2h-5z"/><path id="vu0hn" d="M1132.97 2197.38l-12.61-12.6 1.41-1.42 12.61 12.6z"/><path id="vu0ho" d="M1134 2198h-6v-2h5v-5h2v6a1 1 0 0 1-1 1"/><path id="vu0hp" d="M1087.03 2197.38l-1.41-1.41 12.6-12.61 1.42 1.41z"/><path id="vu0hq" d="M1092 2198h-6a1 1 0 0 1-1-1v-6h2v5h5z"/><path id="vu0hr" d="M1121.77 2162.64l-1.41-1.41 12.6-12.61 1.42 1.41z"/><path id="vu0hs" d="M1135 2155h-2v-5h-5v-2h6a1 1 0 0 1 1 1z"/><path id="vu0ht" d="M1110 2182a5 5 0 0 1-5-5h2a3 3 0 0 0 6 0c0-1.34-1.07-1.94-2.96-2.87l-.96-.47c-1.91-.94-4.08-2-4.08-4.66a5 5 0 0 1 10 0h-2a3 3 0 0 0-6 0c0 1.34 1.07 1.94 2.96 2.87l.96.47c1.91.94 4.08 2 4.08 4.66a5 5 0 0 1-5 5"/><path id="vu0hu" d="M1109 2165h2v-3h-2z"/><path id="vu0hv" d="M1109 2184h2v-3h-2z"/><path id="vu0hw" d="M1101 2174h2v-2h-2z"/><path id="vu0hx" d="M1117 2174h2v-2h-2z"/><clipPath id="vu0hc"><use xlink:href="#vu0ha"/></clipPath></defs><g><g transform="translate(-1078 -2141)"><g><g><use fill="#363f40" xlink:href="#vu0hb"/></g><g/><g clip-path="url(#vu0hc)"><use fill="#363f40" xlink:href="#vu0hd"/></g><g clip-path="url(#vu0hc)"><use fill="#363f40" xlink:href="#vu0he"/></g><g clip-path="url(#vu0hc)"><use fill="#363f40" xlink:href="#vu0hf"/></g><g clip-path="url(#vu0hc)"><use fill="#363f40" xlink:href="#vu0hg"/></g><g clip-path="url(#vu0hc)"><use fill="#363f40" xlink:href="#vu0hh"/></g><g clip-path="url(#vu0hc)"><use fill="#363f40" xlink:href="#vu0hi"/></g><g clip-path="url(#vu0hc)"><use fill="#363f40" xlink:href="#vu0hj"/></g><g clip-path="url(#vu0hc)"><use fill="#363f40" xlink:href="#vu0hk"/></g><g clip-path="url(#vu0hc)"><use fill="#363f40" xlink:href="#vu0hl"/></g><g clip-path="url(#vu0hc)"><use fill="#363f40" xlink:href="#vu0hm"/></g><g clip-path="url(#vu0hc)"><use fill="#363f40" xlink:href="#vu0hn"/></g><g clip-path="url(#vu0hc)"><use fill="#363f40" xlink:href="#vu0ho"/></g><g clip-path="url(#vu0hc)"><use fill="#363f40" xlink:href="#vu0hp"/></g><g clip-path="url(#vu0hc)"><use fill="#363f40" xlink:href="#vu0hq"/></g><g clip-path="url(#vu0hc)"><use fill="#363f40" xlink:href="#vu0hr"/></g><g clip-path="url(#vu0hc)"><use fill="#363f40" xlink:href="#vu0hs"/></g><g clip-path="url(#vu0hc)"><use fill="#363f40" xlink:href="#vu0ht"/></g><g clip-path="url(#vu0hc)"><use fill="#363f40" xlink:href="#vu0hu"/></g><g clip-path="url(#vu0hc)"><use fill="#363f40" xlink:href="#vu0hv"/></g><g clip-path="url(#vu0hc)"><use fill="#363f40" xlink:href="#vu0hw"/></g><g clip-path="url(#vu0hc)"><use fill="#363f40" xlink:href="#vu0hx"/></g></g></g></g></svg>