<?xml version="1.0" encoding="UTF-8"?>
<svg width="64px" height="64px" viewBox="0 0 64 64" version="1.1" xmlns="http://www.w3.org/2000/svg" xmlns:xlink="http://www.w3.org/1999/xlink">
    <!-- Generator: Sketch 51.2 (57519) - http://www.bohemiancoding.com/sketch -->
    <title>Group 29</title>
    <desc>Created with Sketch.</desc>
    <defs>
        <polygon id="path-1" points="0 64 64 64 64 0 0 0"></polygon>
    </defs>
    <g id="Page-1" stroke="none" stroke-width="1" fill="none" fill-rule="evenodd">
        <g id="02_Как-это-работает" transform="translate(-374.000000, -453.000000)">
            <g id="Group-29" transform="translate(374.000000, 453.000000)">
                <path d="M50,20 C43.383,20 38,25.383 38,32 C38,38.617 43.383,44 50,44 C56.617,44 62,38.617 62,32 C62,25.383 56.617,20 50,20 M50,46 C42.28,46 36,39.72 36,32 C36,24.28 42.28,18 50,18 C57.72,18 64,24.28 64,32 C64,39.72 57.72,46 50,46" id="Fill-1" fill="#363F40"></path>
                <path d="M50,64 C47.243,64 45,61.757 45,59 L45,44 L47,44 L47,59 C47,60.654 48.346,62 50,62 C51.654,62 53,60.654 53,59 L53,44 L55,44 L55,59 C55,61.757 52.757,64 50,64" id="Fill-3" fill="#363F40"></path>
                <mask id="mask-2" fill="white">
                    <use xlink:href="#path-1"></use>
                </mask>
                <g id="Clip-6"></g>
                <polygon id="Fill-5" fill="#363F40" mask="url(#mask-2)" points="49 58 51 58 51 56 49 56"></polygon>
                <polygon id="Fill-7" fill="#363F40" mask="url(#mask-2)" points="49 54 51 54 51 52 49 52"></polygon>
                <polygon id="Fill-8" fill="#363F40" mask="url(#mask-2)" points="49 50 51 50 51 48 49 48"></polygon>
                <path d="M48,37 C47.744,37 47.488,36.902 47.293,36.707 L43.293,32.707 L44.707,31.293 L48,34.586 L55.293,27.293 L56.707,28.707 L48.707,36.707 C48.512,36.902 48.256,37 48,37" id="Fill-9" fill="#363F40" mask="url(#mask-2)"></path>
                <polygon id="Fill-10" fill="#363F40" mask="url(#mask-2)" points="43 58 0 58 0 0 64 0 64 20 62 20 62 2 2 2 2 56 43 56"></polygon>
                <polygon id="Fill-11" fill="#363F40" mask="url(#mask-2)" points="64 58 57 58 57 56 62 56 62 44 64 44"></polygon>
                <polygon id="Fill-12" fill="#363F40" mask="url(#mask-2)" points="1 10 63 10 63 8 1 8"></polygon>
                <polygon id="Fill-13" fill="#363F40" mask="url(#mask-2)" points="4 6 6 6 6 4 4 4"></polygon>
                <polygon id="Fill-14" fill="#363F40" mask="url(#mask-2)" points="8 6 10 6 10 4 8 4"></polygon>
                <polygon id="Fill-15" fill="#363F40" mask="url(#mask-2)" points="12 6 14 6 14 4 12 4"></polygon>
                <polygon id="Fill-16" fill="#363F40" mask="url(#mask-2)" points="16 9 18 9 18 1 16 1"></polygon>
                <polygon id="Fill-17" fill="#363F40" mask="url(#mask-2)" points="20 6 60 6 60 4 20 4"></polygon>
                <polygon id="Fill-18" fill="#363F40" mask="url(#mask-2)" points="43 54 4 54 4 12 60 12 60 18 58 18 58 14 6 14 6 52 43 52"></polygon>
                <path d="M12,30 L22,30 L22,20 L12,20 L12,30 Z M10,32 L24,32 L24,18 L10,18 L10,32 Z" id="Fill-19" fill="#363F40" mask="url(#mask-2)"></path>
                <polygon id="Fill-20" fill="#363F40" mask="url(#mask-2)" points="34 32 26 32 26 18 40 18 40 20 28 20 28 30 34 30"></polygon>
                <polygon id="Fill-21" fill="#363F40" mask="url(#mask-2)" points="10 36 24 36 24 34 10 34"></polygon>
                <polygon id="Fill-22" fill="#363F40" mask="url(#mask-2)" points="10 40 24 40 24 38 10 38"></polygon>
                <polygon id="Fill-23" fill="#363F40" mask="url(#mask-2)" points="10 44 24 44 24 42 10 42"></polygon>
                <polygon id="Fill-24" fill="#363F40" mask="url(#mask-2)" points="10 48 24 48 24 46 10 46"></polygon>
                <polygon id="Fill-25" fill="#363F40" mask="url(#mask-2)" points="26 36 34 36 34 34 26 34"></polygon>
                <polygon id="Fill-26" fill="#363F40" mask="url(#mask-2)" points="26 40 34 40 34 38 26 38"></polygon>
                <polygon id="Fill-27" fill="#363F40" mask="url(#mask-2)" points="26 44 37 44 37 42 26 42"></polygon>
                <polygon id="Fill-28" fill="#363F40" mask="url(#mask-2)" points="26 48 40 48 40 46 26 46"></polygon>
            </g>
        </g>
    </g>
</svg>