<?xml version="1.0" encoding="UTF-8"?>
<svg width="24px" height="15px" viewBox="0 0 24 15" version="1.1" xmlns="http://www.w3.org/2000/svg" xmlns:xlink="http://www.w3.org/1999/xlink">
    <!-- Generator: Sketch 50.2 (55047) - http://www.bohemiancoding.com/sketch -->
    <title>google-plus</title>
    <desc>Created with Sketch.</desc>
    <defs></defs>
    <g id="Page-1" stroke="none" stroke-width="1" fill="none" fill-rule="evenodd">
        <g id="Mainpage" transform="translate(-1380.000000, -3268.000000)" fill="#8C9093">
            <g id="Group-15" transform="translate(1380.000000, 3266.000000)">
                <g id="google-plus" transform="translate(0.000000, 2.000000)">
                    <path d="M0.00470065959,7.50957543 C-0.145199394,3.64279928 3.31176718,0.069427379 7.26244431,0.0230662665 C9.27600242,-0.145195394 11.2349612,0.620897676 12.7587796,1.87037829 C12.1336997,2.54374913 11.4976999,3.20933909 10.8183515,3.83245838 C9.47686187,3.03394495 7.86171362,2.42541483 6.2938848,2.9658622 C3.7651073,3.6713292 2.23367805,6.59661814 3.16947795,9.02036414 C3.94445791,11.5517457 7.08706455,12.9409581 9.54999192,11.8775703 C10.8253005,11.4301694 11.6661306,10.2773014 12.0350899,9.03851954 C10.5734817,9.00998962 9.11154254,9.02782082 7.64993429,8.98826798 C7.64629433,8.13626096 7.64265438,7.28749598 7.64629433,6.43548896 C10.083742,6.43192272 12.5248296,6.42479024 14.9659173,6.44618768 C15.1158173,8.53373456 14.8014574,10.7678215 13.4162882,12.4433056 C11.5195396,14.8349554 8.01525363,15.5368562 5.16450537,14.598611 C2.13903917,13.6250276 -0.0611494743,10.6387884 0.00470065959,7.50957543 Z" id="Shape"></path>
                    <path d="M20.0101615,4 L21.9931586,4 C21.9967805,4.66344703 22.0031189,5.33021431 22.0067408,5.99335949 C22.6698526,6 23.3365863,6.00332025 24,6.00664051 L24,7.99335949 C23.3368882,7.99667975 22.6701544,8 22.0067408,8.00332025 C22.0001006,8.67008753 21.9967805,9.33323272 21.9931586,10 C21.3300468,9.99667975 20.6663313,10 20.0065396,10 C20.0002012,9.33323272 20.0002012,8.67008753 19.9932592,8.00664051 C19.3301474,7.99969816 18.6634137,7.99667975 18,7.99305765 L18,6.00633867 C18.6634137,6.00301841 19.3268273,5.99969816 19.9932592,5.99305765 C19.9965793,5.33021431 20.0032195,4.66344703 20.0101615,4 Z" id="Shape"></path>
                </g>
            </g>
        </g>
    </g>
</svg>