<svg xmlns="http://www.w3.org/2000/svg" xmlns:xlink="http://www.w3.org/1999/xlink" width="64" height="56" viewBox="0 0 64 56"><defs><path id="i32rc" d="M396 1006h20v-2h-20z"/><path id="i32rd" d="M422 1029a1 1 0 0 1-.7-1.7l3.7-3.71v-2l3.3-3.3a1 1 0 1 1 1.4 1.42l-2.7 2.7v2l-4.3 4.3a1 1 0 0 1-.7.29"/><path id="i32re" d="M418 1041c-1.37 0-2.57-1.16-2.7-1.3l-11-11a1 1 0 1 1 1.4-1.4l11 11c.3.28.9.7 1.3.7a2 2 0 0 0 2-2c0-.4-.42-1-.71-1.3l-11-11a1 1 0 1 1 1.42-1.4l11 11c.13.13 1.29 1.33 1.29 2.7a4 4 0 0 1-4 4"/><path id="i32rf" d="M413 1044c-1.37 0-2.57-1.16-2.7-1.3l-10-10a1 1 0 1 1 1.4-1.4l10 10c.3.28.9.7 1.3.7a2 2 0 0 0 2-2c0-.4-.42-1-.71-1.3a1 1 0 0 1 1.42-1.4c.13.13 1.29 1.33 1.29 2.7a4 4 0 0 1-4 4"/><path id="i32rg" d="M407 1046c-1.37 0-2.57-1.16-2.7-1.3l-18.3-18.29v-3l-3.7-3.7a1 1 0 1 1 1.4-1.42l4.3 4.3v3l17.7 17.7c.3.29.9.71 1.3.71a2 2 0 0 0 2-2c0-.4-.42-1-.71-1.3a1 1 0 0 1 1.42-1.4c.13.13 1.29 1.33 1.29 2.7a4 4 0 0 1-4 4"/><path id="i32rh" d="M390 1034a4 4 0 0 1-4-4c0-1.37 1.16-2.57 1.3-2.7a1 1 0 1 1 1.4 1.4c-.28.3-.7.9-.7 1.3 0 1.1.9 2 2 2 .4 0 1-.42 1.3-.71a1 1 0 0 1 1.4 1.42c-.12.13-1.33 1.29-2.7 1.29"/><path id="i32ri" d="M394 1038a4 4 0 0 1-4-4c0-1.37 1.16-2.57 1.3-2.7a1 1 0 1 1 1.4 1.4c-.28.3-.7.9-.7 1.3 0 1.1.9 2 2 2 .4 0 1-.42 1.3-.71a1 1 0 0 1 1.4 1.42c-.12.13-1.33 1.29-2.7 1.29"/><path id="i32rj" d="M398 1042a4 4 0 0 1-4-4c0-1.37 1.16-2.57 1.3-2.7a1 1 0 1 1 1.4 1.4c-.28.3-.7.9-.7 1.3 0 1.1.9 2 2 2 .4 0 1-.42 1.3-.71a1 1 0 0 1 1.4 1.42c-.12.13-1.33 1.29-2.7 1.29"/><path id="i32rk" d="M402 1046a4 4 0 0 1-4-4c0-1.37 1.16-2.57 1.3-2.7a1 1 0 1 1 1.4 1.4c-.28.3-.7.9-.7 1.3 0 1.1.9 2 2 2 .4 0 1-.42 1.3-.71a1 1 0 0 1 1.4 1.42c-.12.13-1.33 1.29-2.7 1.29"/><path id="i32rl" d="M420 1035c-1.38 0-2.58-1.16-2.7-1.3a1 1 0 1 1 1.4-1.4c.3.28.9.7 1.3.7a2 2 0 0 0 2-2c0-.4-.42-1-.71-1.3L408 1016.41V1011h-1.59l-4.7 4.7c-.13.14-1.34 1.3-2.71 1.3a4 4 0 0 1-4-4c0-1.37 1.16-2.57 1.3-2.7l6-6a1 1 0 1 1 1.4 1.4l-6 6c-.28.3-.7.9-.7 1.3 0 1.1.9 2 2 2 .4 0 1-.42 1.3-.71l5.29-5.29H410v6.59l12.7 12.7c.14.14 1.3 1.34 1.3 2.71a4 4 0 0 1-4 4"/><path id="i32rm" d="M414 1019h-3v-2h3a2 2 0 0 0 2-2h2a4 4 0 0 1-4 4"/><path id="i32ra" d="M413 990h25v30h-25z"/><path id="i32ro" d="M432 1020h-2a1 1 0 0 1-.7-.3l-16-16a1 1 0 0 1-.3-.7v-2a1 1 0 0 1 .3-.7l10-10a1 1 0 1 1 1.4 1.4l-9.7 9.71v1.18l15.41 15.41h1.18l4.7-4.7a1 1 0 1 1 1.42 1.4l-5 5a1 1 0 0 1-.71.3"/><path id="i32rb" d="M374 990h25v30h-25z"/><path id="i32rq" d="M382 1020h-2a1 1 0 0 1-.7-.3l-5-5a1 1 0 1 1 1.4-1.4l4.71 4.7h1.18l15.41-15.41v-1.18l-9.7-9.7a1 1 0 1 1 1.4-1.42l10 10a1 1 0 0 1 .3.71v2a1 1 0 0 1-.3.7l-16 16a1 1 0 0 1-.7.3"/><path id="i32rr" d="M431 1013a1 1 0 0 1-.7-1.7l2-2a1 1 0 1 1 1.4 1.4l-2 2a1 1 0 0 1-.7.3"/><path id="i32rs" d="M381 1013a1 1 0 0 1-.7-.3l-2-2a1 1 0 1 1 1.4-1.4l2 2a1 1 0 0 1-.7 1.7"/><clipPath id="i32rn"><use xlink:href="#i32ra"/></clipPath><clipPath id="i32rp"><use xlink:href="#i32rb"/></clipPath></defs><g><g transform="translate(-374 -990)"><g><use fill="#363f40" xlink:href="#i32rc"/></g><g><g><use fill="#363f40" xlink:href="#i32rd"/></g><g><use fill="#363f40" xlink:href="#i32re"/></g><g><use fill="#363f40" xlink:href="#i32rf"/></g><g><use fill="#363f40" xlink:href="#i32rg"/></g><g><use fill="#363f40" xlink:href="#i32rh"/></g><g><use fill="#363f40" xlink:href="#i32ri"/></g><g><use fill="#363f40" xlink:href="#i32rj"/></g><g><use fill="#363f40" xlink:href="#i32rk"/></g><g><use fill="#363f40" xlink:href="#i32rl"/></g><g><use fill="#363f40" xlink:href="#i32rm"/></g><g><g/><g clip-path="url(#i32rn)"><use fill="#363f40" xlink:href="#i32ro"/></g></g><g><g/><g clip-path="url(#i32rp)"><use fill="#363f40" xlink:href="#i32rq"/></g></g><g><use fill="#363f40" xlink:href="#i32rr"/></g><g><use fill="#363f40" xlink:href="#i32rs"/></g></g></g></g></svg>