<svg xmlns="http://www.w3.org/2000/svg" xmlns:xlink="http://www.w3.org/1999/xlink" width="30" height="30" viewBox="0 0 30 30"><defs><path id="sh3la" d="M958.21 247.63c-.9 0-1.64-.73-1.64-1.63a1.64 1.64 0 0 1 3.28 0c0 .9-.74 1.63-1.64 1.63zm6.62 12.2h-4.18a1.98 1.98 0 0 0 0-1.64h.18a2 2 0 0 0 1.78-2.89 2 2 0 0 0 1.07-3.1v-7.43a.59.59 0 0 0-1.17 0v6.67a2 2 0 0 0-.43-.05h-.01a2 2 0 0 0-1.81-2.81h-.95a2.8 2.8 0 1 0-2.2 0h-3.2v-11.14a2.76 2.76 0 0 0 2.1-2.1h4.4a2.76 2.76 0 0 0 2.1 2.1v1.82a.59.59 0 0 0 1.17 0v-2.35a.59.59 0 0 0-.58-.58c-.87 0-1.58-.71-1.58-1.58a.59.59 0 0 0-.59-.59h-5.45a.59.59 0 0 0-.59.6c0 .86-.7 1.57-1.57 1.57a.59.59 0 0 0-.59.58v11.67h-1.14v-16.4h13.24zm-6 0h-11.1c-.43 0-.85-.15-1.17-.43l-1.42-1.24v-8.1l2.56-2.57.46 1.82c.07.26.3.44.57.44h11.52a.82.82 0 0 1 0 1.64h-5.9a.59.59 0 0 0 0 1.18h7.73a.82.82 0 0 1 0 1.64h-7.73a.59.59 0 0 0 0 1.17h6.48a.82.82 0 0 1 0 1.64h-6.48a.59.59 0 0 0 0 1.18h4.48a.82.82 0 0 1 0 1.64zm-8.43-20.5v4.96l-1.05-3.97c.44-.23.8-.57 1.05-.99zm-4.67-3.6l4.68-1.25v2.17l-.39.1a.59.59 0 0 0-.41.72c.22.84-.28 1.7-1.12 1.93a.59.59 0 0 0-.41.72l2.28 8.46h-1.17l-.61-2.37a.59.59 0 0 0-.1-.2zm-1.76 23.51c0 .33-.26.59-.59.59h-5.62a.59.59 0 0 1-.59-.59v-9.55c0-.32.26-.58.59-.58h2.22v6.75a.59.59 0 0 0 1.18 0v-6.75h2.22c.33 0 .59.26.59.58v9.55zm21.86-28.07a.59.59 0 0 0-.42-.17H951a.59.59 0 0 0-.59.59v1.67l-5.55 1.5c-.31.07-.5.4-.41.7l2.87 10.75-2.49 2.5a1.76 1.76 0 0 0-1.45-.78h-5.62c-.97 0-1.76.8-1.76 1.76v9.55c0 .97.79 1.76 1.76 1.76h5.62c.83 0 1.52-.57 1.7-1.33l.7.6c.54.47 1.23.73 1.95.73h17.68c.33 0 .59-.26.59-.59V231.6c0-.16-.06-.3-.17-.42z"/></defs><g><g transform="translate(-936 -231)"><use fill="#0078e8" xlink:href="#sh3la"/></g></g></svg>