<svg id="Layer_1" data-name="Layer 1" xmlns="http://www.w3.org/2000/svg" viewBox="0 0 64 64"><defs><style>.cls-1{fill:#373e40;}</style></defs><title>Untitled-1</title><path class="cls-1" d="M15,36a1,1,0,0,1-.71-0.29L6.59,28H1a1,1,0,0,1-1-1V1A1,1,0,0,1,1,0H39a1,1,0,0,1,1,1V27a1,1,0,0,1-1,1H36V26h2V2H2V26H7a1,1,0,0,1,.71.29L14,32.59V27a1,1,0,0,1,1-1h8v2H16v7A1,1,0,0,1,15,36Z"/><path class="cls-1" d="M17,64H0V38H17V64ZM2,62H15V40H2V62Z"/><path class="cls-1" d="M40,64H23a1,1,0,0,1-.45-0.11l-4-2,0.89-1.79L23.24,62H40a2,2,0,0,0,0-4,1,1,0,0,1,0-2h1a2,2,0,0,0,0-4,1,1,0,0,1,0-2h2a2,2,0,0,0,0-4H42a1,1,0,0,1,0-2,2,2,0,0,0,0-4H29a1,1,0,0,1-.93-1.37L32,28.81V26a2,2,0,0,0-4,0,1,1,0,0,1-.11.45l-3,6a1,1,0,0,1-.14.2l-6,7A1,1,0,0,1,18,40H16V38h1.54l5.62-6.56L26,25.75A4,4,0,0,1,34,26v3a1,1,0,0,1-.07.37L30.48,38H42a4,4,0,0,1,3.06,6.57,4,4,0,0,1-.74,7.2,4,4,0,0,1-1.26,5.65A4,4,0,0,1,40,64Z"/><rect class="cls-1" x="11" y="58" width="2" height="2"/><path class="cls-1" d="M49,42a1,1,0,0,1-1-1V34H36V32H49a1,1,0,0,1,1,1v5.59l6.29-6.29A1,1,0,0,1,57,32h5V10H42V8H63a1,1,0,0,1,1,1V33a1,1,0,0,1-1,1H57.41l-7.71,7.71A1,1,0,0,1,49,42Z"/><rect class="cls-1" x="15" y="13" width="2" height="2"/><rect class="cls-1" x="19" y="13" width="2" height="2"/><rect class="cls-1" x="23" y="13" width="2" height="2"/><rect class="cls-1" x="42" y="14" width="16" height="2"/><rect class="cls-1" x="42" y="20" width="16" height="2"/><rect class="cls-1" x="42" y="26" width="16" height="2"/><path class="cls-1" d="M33,20H7a1,1,0,0,1-1-1V9A1,1,0,0,1,7,8H33a1,1,0,0,1,1,1V19A1,1,0,0,1,33,20ZM8,18H32V10H8v8Z"/></svg>