<?xml version="1.0" encoding="UTF-8"?>
<svg width="17px" height="16px" viewBox="0 0 17 16" version="1.1" xmlns="http://www.w3.org/2000/svg" xmlns:xlink="http://www.w3.org/1999/xlink">
    <!-- Generator: Sketch 50.2 (55047) - http://www.bohemiancoding.com/sketch -->
    <title>linkedin</title>
    <desc>Created with Sketch.</desc>
    <defs></defs>
    <g id="Page-1" stroke="none" stroke-width="1" fill="none" fill-rule="evenodd">
        <g id="Mainpage" transform="translate(-1424.000000, -3267.000000)" fill="#8C9093">
            <g id="Group-15" transform="translate(1380.000000, 3266.000000)">
                <path d="M61,10.8088004 L61,17 L57.3555509,17 L57.3555509,11.2237243 C57.3555509,9.77336456 56.829363,8.78290112 55.5098165,8.78290112 C54.5028298,8.78290112 53.9046173,9.44972394 53.6404361,10.095399 C53.5444938,10.3261502 53.5197608,10.6465786 53.5197608,10.9702192 L53.5197608,16.9997323 L49.87504,16.9997323 C49.87504,16.9997323 49.9239624,7.21663042 49.87504,6.20394847 L53.5200326,6.20394847 L53.5200326,7.73381295 C53.5126943,7.74585913 53.5023662,7.75763761 53.4958432,7.7691484 L53.5200326,7.7691484 L53.5200326,7.73381295 C54.0043646,6.99979923 54.8681173,5.95044337 56.80463,5.95044337 C59.2023726,5.95044337 61,7.4934248 61,10.8088004 L61,10.8088004 Z M46.0623521,1 C44.8156456,1 44,1.80602309 44,2.86501589 C44,3.9015225 44.7919997,4.73083487 46.0145169,4.73083487 L46.0381627,4.73083487 C47.3093304,4.73083487 48.0996994,3.9015225 48.0996994,2.86501589 C48.07551,1.80602309 47.3093304,1 46.0623521,1 L46.0623521,1 Z M44.2166176,17 L47.8599795,17 L47.8599795,6.20394847 L44.2166176,6.20394847 L44.2166176,17 Z" id="linkedin"></path>
            </g>
        </g>
    </g>
</svg>