<svg xmlns="http://www.w3.org/2000/svg" xmlns:xlink="http://www.w3.org/1999/xlink" width="64" height="64" viewBox="0 0 64 64"><defs><path id="f3z9b" d="M385 481c-3.42 0-6-3.22-6-7.5 0-3.03.68-6.5 6-6.5s6 3.47 6 6.5c0 4.28-2.58 7.5-6 7.5m0-12c-3.03 0-4 1.1-4 4.5 0 2.67 1.4 5.5 4 5.5s4-2.83 4-5.5c0-3.4-.97-4.5-4-4.5"/><path id="f3z9c" d="M393 489h-2v-2h2c.3 0 1-.78 1-2v-1.42l-6.5-3.71 1-1.74 7.5 4.29V485c0 2.17-1.38 4-3 4"/><path id="f3z9d" d="M379 489h-2c-1.63 0-3-1.83-3-4v-2.58l7.5-4.29 1 1.74-6.5 3.7V485c0 1.22.7 2 1 2h2z"/><path id="f3z9e" d="M385 502c-3.42 0-6-3.22-6-7.5 0-3.03.68-6.5 6-6.5s6 3.47 6 6.5c0 4.28-2.58 7.5-6 7.5m0-12c-3.03 0-4 1.1-4 4.5 0 2.67 1.4 5.5 4 5.5s4-2.83 4-5.5c0-3.4-.97-4.5-4-4.5"/><path id="f3z9f" d="M393 510h-2v-2h2c.3 0 1-.78 1-2v-1.42l-6.5-3.71 1-1.74 7.5 4.29V506c0 2.17-1.38 4-3 4"/><path id="f3z9g" d="M379 510h-2c-1.63 0-3-1.83-3-4v-2.58l7.5-4.29 1 1.74-6.5 3.7V506c0 1.22.7 2 1 2h2z"/><path id="f3z9h" d="M385 523c-3.42 0-6-3.22-6-7.5 0-3.03.68-6.5 6-6.5s6 3.47 6 6.5c0 4.28-2.58 7.5-6 7.5m0-12c-3.03 0-4 1.1-4 4.5 0 2.67 1.4 5.5 4 5.5s4-2.83 4-5.5c0-3.4-.97-4.5-4-4.5"/><path id="f3z9i" d="M393 531h-16c-1.63 0-3-1.83-3-4v-2.58l7.5-4.29 1 1.74-6.5 3.7V527c0 1.22.7 2 1 2h16c.3 0 1-.78 1-2v-1.42l-6.5-3.71 1-1.74 7.5 4.29V527c0 2.17-1.37 4-3 4"/><path id="f3z9j" d="M438 525h-40v-2h38v-6h-43v-2h45z"/><path id="f3z9k" d="M438 505h-40v-2h38v-6h-43v-2h45z"/><path id="f3z9l" d="M438 485h-40v-2h38v-6h-43v-2h45z"/><path id="f3z9a" d="M374 531h64v-64h-64z"/><path id="f3z9n" d="M398 481h2v-2h-2z"/><path id="f3z9o" d="M402 481h2v-2h-2z"/><path id="f3z9p" d="M406 481h2v-2h-2z"/><path id="f3z9q" d="M410 481h2v-2h-2z"/><path id="f3z9r" d="M414 481h2v-2h-2z"/><path id="f3z9s" d="M418 481h2v-2h-2z"/><path id="f3z9t" d="M398 501h2v-2h-2z"/><path id="f3z9u" d="M402 501h2v-2h-2z"/><path id="f3z9v" d="M406 501h2v-2h-2z"/><path id="f3z9w" d="M410 501h2v-2h-2z"/><path id="f3z9x" d="M414 501h2v-2h-2z"/><path id="f3z9y" d="M418 501h2v-2h-2z"/><path id="f3z9z" d="M422 501h2v-2h-2z"/><path id="f3z9A" d="M426 501h2v-2h-2z"/><path id="f3z9B" d="M398 521h2v-2h-2z"/><path id="f3z9C" d="M402 521h2v-2h-2z"/><path id="f3z9D" d="M406 521h2v-2h-2z"/><path id="f3z9E" d="M410 521h2v-2h-2z"/><path id="f3z9F" d="M414 521h2v-2h-2z"/><path id="f3z9G" d="M398 529h8v-2h-8z"/><path id="f3z9H" d="M408 529h20v-2h-20z"/><path id="f3z9I" d="M398 509h18v-2h-18z"/><path id="f3z9J" d="M418 509h10v-2h-10z"/><path id="f3z9K" d="M414 489h4v-2h-4z"/><path id="f3z9L" d="M398 489h14v-2h-14z"/><path id="f3z9M" d="M420 489h8v-2h-8z"/><clipPath id="f3z9m"><use xlink:href="#f3z9a"/></clipPath></defs><g><g transform="translate(-374 -467)"><g><use fill="#253242" xlink:href="#f3z9b"/></g><g><use fill="#253242" xlink:href="#f3z9c"/></g><g><use fill="#253242" xlink:href="#f3z9d"/></g><g><use fill="#253242" xlink:href="#f3z9e"/></g><g><use fill="#253242" xlink:href="#f3z9f"/></g><g><use fill="#253242" xlink:href="#f3z9g"/></g><g><use fill="#253242" xlink:href="#f3z9h"/></g><g><use fill="#253242" xlink:href="#f3z9i"/></g><g><use fill="#253242" xlink:href="#f3z9j"/></g><g><use fill="#253242" xlink:href="#f3z9k"/></g><g><use fill="#253242" xlink:href="#f3z9l"/></g><g/><g clip-path="url(#f3z9m)"><use fill="#253242" xlink:href="#f3z9n"/></g><g clip-path="url(#f3z9m)"><use fill="#253242" xlink:href="#f3z9o"/></g><g clip-path="url(#f3z9m)"><use fill="#253242" xlink:href="#f3z9p"/></g><g clip-path="url(#f3z9m)"><use fill="#253242" xlink:href="#f3z9q"/></g><g clip-path="url(#f3z9m)"><use fill="#253242" xlink:href="#f3z9r"/></g><g clip-path="url(#f3z9m)"><use fill="#253242" xlink:href="#f3z9s"/></g><g clip-path="url(#f3z9m)"><use fill="#253242" xlink:href="#f3z9t"/></g><g clip-path="url(#f3z9m)"><use fill="#253242" xlink:href="#f3z9u"/></g><g clip-path="url(#f3z9m)"><use fill="#253242" xlink:href="#f3z9v"/></g><g clip-path="url(#f3z9m)"><use fill="#253242" xlink:href="#f3z9w"/></g><g clip-path="url(#f3z9m)"><use fill="#253242" xlink:href="#f3z9x"/></g><g clip-path="url(#f3z9m)"><use fill="#253242" xlink:href="#f3z9y"/></g><g clip-path="url(#f3z9m)"><use fill="#253242" xlink:href="#f3z9z"/></g><g clip-path="url(#f3z9m)"><use fill="#253242" xlink:href="#f3z9A"/></g><g clip-path="url(#f3z9m)"><use fill="#253242" xlink:href="#f3z9B"/></g><g clip-path="url(#f3z9m)"><use fill="#253242" xlink:href="#f3z9C"/></g><g clip-path="url(#f3z9m)"><use fill="#253242" xlink:href="#f3z9D"/></g><g clip-path="url(#f3z9m)"><use fill="#253242" xlink:href="#f3z9E"/></g><g clip-path="url(#f3z9m)"><use fill="#253242" xlink:href="#f3z9F"/></g><g clip-path="url(#f3z9m)"><use fill="#253242" xlink:href="#f3z9G"/></g><g clip-path="url(#f3z9m)"><use fill="#253242" xlink:href="#f3z9H"/></g><g clip-path="url(#f3z9m)"><use fill="#253242" xlink:href="#f3z9I"/></g><g clip-path="url(#f3z9m)"><use fill="#253242" xlink:href="#f3z9J"/></g><g clip-path="url(#f3z9m)"><use fill="#253242" xlink:href="#f3z9K"/></g><g clip-path="url(#f3z9m)"><use fill="#253242" xlink:href="#f3z9L"/></g><g clip-path="url(#f3z9m)"><use fill="#253242" xlink:href="#f3z9M"/></g></g></g></svg>