<svg xmlns="http://www.w3.org/2000/svg" xmlns:xlink="http://www.w3.org/1999/xlink" width="64" height="64" viewBox="0 0 64 64"><defs><path id="5ugab" d="M995 402h-3c-1.63 0-3-1.83-3-4v-2.58l7.5-4.29 1 1.74-6.5 3.7V398c0 1.22.7 2 1 2h3z"/><path id="5ugac" d="M1009.97 397.14l-7.47-4.27 1-1.73 6.53 3.73 7.52-3.76.9 1.79z"/><path id="5ugad" d="M1032.03 397.14l-8.48-4.24.9-1.79 7.52 3.76 6.53-3.73 1 1.73z"/><path id="5ugae" d="M1050 402h-3v-2h3c.3 0 1-.78 1-2v-1.42l-6.5-3.71 1-1.74 7.5 4.29V398c0 2.17-1.38 4-3 4"/><path id="5ugaf" d="M1000 394c-3.42 0-6-3.23-6-7.5 0-3.03.68-6.5 6-6.5s6 3.47 6 6.5c0 4.28-2.58 7.5-6 7.5m0-12c-3.03 0-4 1.1-4 4.5 0 2.67 1.4 5.5 4 5.5s4-2.83 4-5.5c0-3.4-.97-4.5-4-4.5"/><path id="5ugag" d="M1021 394c-3.42 0-6-3.23-6-7.5 0-3.03.68-6.5 6-6.5s6 3.47 6 6.5c0 4.28-2.58 7.5-6 7.5m0-12c-3.03 0-4 1.1-4 4.5 0 2.67 1.4 5.5 4 5.5s4-2.83 4-5.5c0-3.4-.97-4.5-4-4.5"/><path id="5ugah" d="M1042 394c-3.42 0-6-3.23-6-7.5 0-3.03.68-6.5 6-6.5s6 3.47 6 6.5c0 4.28-2.58 7.5-6 7.5m0-12c-3.03 0-4 1.1-4 4.5 0 2.67 1.4 5.5 4 5.5s4-2.83 4-5.5c0-3.4-.97-4.5-4-4.5"/><path id="5ugaa" d="M989 420h64v-64h-64z"/><path id="5ugaj" d="M1009 399h2v-3h-2z"/><path id="5ugak" d="M1031 399h2v-3h-2z"/><path id="5ugal" d="M1021 370c-3.42 0-6-3.23-6-7.5 0-3.03.68-6.5 6-6.5s6 3.47 6 6.5c0 4.28-2.58 7.5-6 7.5m0-12c-3.03 0-4 1.1-4 4.5 0 2.67 1.4 5.5 4 5.5s4-2.83 4-5.5c0-3.4-.97-4.5-4-4.5"/><path id="5ugam" d="M1029 378h-16c-1.63 0-3-1.83-3-4v-2.58l7.5-4.29 1 1.74-6.5 3.7V374c0 1.22.7 2 1 2h16c.3 0 1-.78 1-2v-1.42l-6.5-3.71 1-1.74 7.5 4.29V374c0 2.17-1.37 4-3 4"/><path id="5ugan" d="M999 376h2v-15h-2z"/><path id="5ugao" d="M1004.29 366.7l-4.3-4.29-4.29 4.3-1.41-1.42 5-5a1 1 0 0 1 1.41 0l5 5z"/><path id="5ugap" d="M1041 376h2v-15h-2z"/><path id="5ugaq" d="M1046.29 366.7l-4.3-4.29-4.29 4.3-1.41-1.42 5-5a1 1 0 0 1 1.41 0l5 5z"/><path id="5ugar" d="M1050 420h-58c-1.63 0-3-1.83-3-4v-2.58l7.5-4.29 1 1.74-6.5 3.7V416c0 1.22.7 2 1 2h58c.3 0 1-.78 1-2v-1.42l-6.5-3.71 1-1.74 7.5 4.29V416c0 2.17-1.37 4-3 4"/><path id="5ugas" d="M1032.03 415.14l-8.48-4.24.9-1.79 7.52 3.76 6.53-3.73 1 1.73z"/><path id="5ugat" d="M1009.97 415.14l-7.47-4.27 1-1.73 6.53 3.73 7.52-3.76.9 1.79z"/><path id="5ugau" d="M1000 412c-3.42 0-6-3.23-6-7.5 0-3.03.68-6.5 6-6.5s6 3.47 6 6.5c0 4.28-2.58 7.5-6 7.5m0-12c-3.03 0-4 1.1-4 4.5 0 2.67 1.4 5.5 4 5.5s4-2.83 4-5.5c0-3.4-.97-4.5-4-4.5"/><path id="5ugav" d="M1021 412c-3.42 0-6-3.23-6-7.5 0-3.03.68-6.5 6-6.5s6 3.47 6 6.5c0 4.28-2.58 7.5-6 7.5m0-12c-3.03 0-4 1.1-4 4.5 0 2.67 1.4 5.5 4 5.5s4-2.83 4-5.5c0-3.4-.97-4.5-4-4.5"/><path id="5ugaw" d="M1042 412c-3.42 0-6-3.23-6-7.5 0-3.03.68-6.5 6-6.5s6 3.47 6 6.5c0 4.28-2.58 7.5-6 7.5m0-12c-3.03 0-4 1.1-4 4.5 0 2.67 1.4 5.5 4 5.5s4-2.83 4-5.5c0-3.4-.97-4.5-4-4.5"/><path id="5ugax" d="M1009 417h2v-3h-2z"/><path id="5ugay" d="M1031 417h2v-3h-2z"/><clipPath id="5ugai"><use xlink:href="#5ugaa"/></clipPath></defs><g><g transform="translate(-989 -356)"><g><use fill="#363f40" xlink:href="#5ugab"/></g><g><use fill="#363f40" xlink:href="#5ugac"/></g><g><use fill="#363f40" xlink:href="#5ugad"/></g><g><use fill="#363f40" xlink:href="#5ugae"/></g><g><use fill="#363f40" xlink:href="#5ugaf"/></g><g><use fill="#363f40" xlink:href="#5ugag"/></g><g><use fill="#363f40" xlink:href="#5ugah"/></g><g/><g clip-path="url(#5ugai)"><use fill="#363f40" xlink:href="#5ugaj"/></g><g clip-path="url(#5ugai)"><use fill="#363f40" xlink:href="#5ugak"/></g><g clip-path="url(#5ugai)"><use fill="#363f40" xlink:href="#5ugal"/></g><g clip-path="url(#5ugai)"><use fill="#363f40" xlink:href="#5ugam"/></g><g clip-path="url(#5ugai)" transform="rotate(-180 1000 368)"><g><use fill="#363f40" xlink:href="#5ugan"/></g><g><use fill="#363f40" xlink:href="#5ugao"/></g></g><g clip-path="url(#5ugai)" transform="rotate(-180 1042 368)"><g><use fill="#363f40" xlink:href="#5ugap"/></g><g><use fill="#363f40" xlink:href="#5ugaq"/></g></g><g clip-path="url(#5ugai)"><use fill="#363f40" xlink:href="#5ugar"/></g><g clip-path="url(#5ugai)"><use fill="#363f40" xlink:href="#5ugas"/></g><g clip-path="url(#5ugai)"><use fill="#363f40" xlink:href="#5ugat"/></g><g clip-path="url(#5ugai)"><use fill="#363f40" xlink:href="#5ugau"/></g><g clip-path="url(#5ugai)"><use fill="#363f40" xlink:href="#5ugav"/></g><g clip-path="url(#5ugai)"><use fill="#363f40" xlink:href="#5ugaw"/></g><g clip-path="url(#5ugai)"><use fill="#363f40" xlink:href="#5ugax"/></g><g clip-path="url(#5ugai)"><use fill="#363f40" xlink:href="#5ugay"/></g></g></g></svg>