<svg id="Layer_1" data-name="Layer 1" xmlns="http://www.w3.org/2000/svg" viewBox="0 0 19 19"><defs><style>.cls-1{fill:#7c8490;}</style></defs><title>Group 4</title><path id="_" data-name="?" class="cls-1" d="M7.36,8.23a2.51,2.51,0,0,1,2.77-2.46,2.43,2.43,0,0,1,2.69,2.3,2.46,2.46,0,0,1-1.33,2.19,1.56,1.56,0,0,0-1,1.5v0.41H9.34V11.58a2.12,2.12,0,0,1,1.27-1.93,1.65,1.65,0,0,0,1-1.53,1.4,1.4,0,0,0-1.56-1.36A1.51,1.51,0,0,0,8.44,8.23H7.36ZM9.9,15.06a0.72,0.72,0,0,1,0-1.45A0.72,0.72,0,0,1,9.9,15.06Z" transform="translate(-0.5 -0.5)"/><path id="Oval" class="cls-1" d="M10,19.5A9.5,9.5,0,1,1,19.5,10,9.5,9.5,0,0,1,10,19.5Zm0-1A8.5,8.5,0,1,0,1.5,10,8.5,8.5,0,0,0,10,18.5Z" transform="translate(-0.5 -0.5)"/></svg>