<?xml version="1.0" encoding="UTF-8"?>
<svg width="18px" height="15px" viewBox="0 0 18 15" version="1.1" xmlns="http://www.w3.org/2000/svg" xmlns:xlink="http://www.w3.org/1999/xlink">
    <!-- Generator: Sketch 50.2 (55047) - http://www.bohemiancoding.com/sketch -->
    <title>Twitter</title>
    <desc>Created with Sketch.</desc>
    <defs></defs>
    <g id="Page-1" stroke="none" stroke-width="1" fill="none" fill-rule="evenodd">
        <g id="Mainpage" transform="translate(-1489.000000, -3268.000000)" fill="#8C9093">
            <g id="Group-15" transform="translate(1380.000000, 3266.000000)">
                <path d="M126.503538,2.27730608 C125.789363,2.71080709 125.000214,3.02608055 124.156756,3.19525167 C123.484874,2.4594534 122.524631,2 121.461538,2 C119.423784,2 117.770032,3.69555605 117.770032,5.78664573 C117.770032,6.0836564 117.801752,6.37153568 117.865191,6.64884175 C114.796064,6.49072442 112.075374,4.98500529 110.25293,2.6911025 C109.934772,3.25244305 109.753104,3.90365576 109.753104,4.59716126 C109.753104,5.91015988 110.404801,7.06936657 111.396283,7.74845407 C110.791686,7.73019128 110.221211,7.55813655 109.722345,7.27650508 L109.722345,7.32264266 C109.722345,9.15805325 110.995461,10.6892442 112.68622,11.0357566 C112.376712,11.1246676 112.049903,11.1693634 111.713,11.1693634 C111.475102,11.1693634 111.242971,11.1462946 111.018049,11.1020794 C111.488078,12.6058761 112.851067,13.7011631 114.467332,13.7304796 C113.203829,14.7464676 111.610632,15.3520233 109.880944,15.3520233 C109.582971,15.3520233 109.288361,15.3347217 109,15.3001185 C110.634048,16.3728173 112.576162,17 114.661015,17 C121.454329,17 125.167944,11.2308801 125.167944,6.22639454 C125.167944,6.06154881 125.16506,5.89718369 125.158812,5.73570216 C125.880197,5.20175579 126.506902,4.53516388 127,3.77581622 C126.338691,4.07667169 125.626438,4.280446 124.879582,4.37175996 C125.642298,3.90365576 126.227672,3.16160969 126.503538,2.27730608" id="Twitter"></path>
            </g>
        </g>
    </g>
</svg>