<svg xmlns="http://www.w3.org/2000/svg" xmlns:xlink="http://www.w3.org/1999/xlink" width="170" height="129" viewBox="0 0 170 129"><defs><path id="kutna" d="M1315.78 1826.6c-3.99.95-7.9.02-11.68-.8-2.04-.46-4.04-1.79-5.81-3.21-2.33-1.87-5.1-3.26-7.25-5.29-2.92-2.74-6.38-5.2-7.33-9.46-.45-2.05-.79-4.14-1.42-6.14-.15-.48-1.23-.86-1.94-.98-2.8-.46-3.48-2.8-4.24-4.8a18.96 18.96 0 0 1-1.11-6.72c0-.7.03-1.41.07-2.12.3-4.4.73-8.82 1.96-13.05.94-3.28 2.77-6.19 4.87-9.02 2.5-3.37 5.24-6.25 9.1-8.03 3.12-1.45 6.37-2.68 9.44-4.23 3.2-1.6 6.92-1.2 10.04-2.45 2.97-1.18 6-1.56 9-2.3 4.39-1.1 8.8-2.08 13.15-3.33 2.86-.82 5.97-1.3 8.2-3.48 1.39-1.37 2.27-3.33 3.81-4.45 1.48-1.07 2.96-1.75 2.55-3.87-.04-.22.28-.48.36-.74.44-1.48 1.61-2.02 3-2.31 1.87-.4 2.75-1.77 3.43-3.35.91-2.08 2.75-3.04 4.76-3.9 3.25-1.39 6.5-1.42 9.87-.67 2.67.6 5.34 1.4 8.03 1.54 1.3.06 2.67-1.25 4.02-1.9 5.22-2.5 8.81-7 13.39-10.3 2.52-1.83 5.12-3.65 7.3-5.83 1.69-1.69 3.6-3.16 4.9-5.35.96-1.61 3.55-1.54 5.61-1.67 2.46-.16 4.9-.63 7.37-.24.37.06.76.32 1 .6 1.5 1.7 3.02 1.02 4.85.45 1.3-.4 2.83.54 3.94 1.54 2.44 2.22 5.38 3.87 7.54 6.42.18.22.61.27.94.31 2.03.3 2.29 1.62 1.84 3.2-.64 2.27 1.5 3.09 2.37 4.56 1.6 2.73 2.32 5.64 2.81 8.78.42 2.7.54 5.37.45 8a22.03 22.03 0 0 1-2.07 8.14c-1.27 2.87-3.42 5.1-5.69 7.1-2.65 2.35-6.14 3.34-9.57 4.29a32.59 32.59 0 0 0-4.52 1.71 363.1 363.1 0 0 0-10.02 4.62c-3.5 1.68-7.08 3.24-10.35 5.27-3.17 1.97-6.83 3.05-9.71 5.52-1.3 1.1-1.65 1.97-.86 3.59.32.66-.59 2-1.73 2.11-5.58.55-9.48 3.93-13.29 7.46-1.81 1.68-3.58 2.06-6.07.97-2.27-1-3.86 1.33-5.67 2.35-3.12 1.75-5.14 4.73-7.82 6.98-3.15 2.64-6.52 5.1-9.3 8.07-2.7 2.9-5.71 5.47-8.57 8.18-3.28 3.11-7.04 5.75-10.21 8.94-2.76 2.77-5.96 4.95-8.97 7.36-1.31 1.05-2.82 2.2-4.77 1.93m55.65-48.02c-.05.12-.01.27-.01.41.15-.06.4-.08.44-.19.45-1.17.87-2.36 1.28-3.55-1.25.77-1.23 2.18-1.71 3.33zm2.1-4.06c.18-1.1.31-2.2.45-3.3 0-.04-.1-.1-.15-.15-.15.68-.42 1.36-.42 2.04 0 .72-1.06 1.33-.25 2.11.13-.23.34-.45.37-.7zm2 3.41l-1.3.92c-.27.17-.57.3-.82.48-.06.04 0 .24 0 .37.23-.03.5 0 .7-.1.63-.38 1.25-.77 1.83-1.22.22-.16.32-.48.48-.73l-.92.3c1.3-.79 2.58-1.58 3.87-2.35 1.98-1.2 3.87-2.6 5.98-3.5 1.85-.8 3.05-1.77 3.2-3.77l.01-.93c-.13 0-.34-.02-.36.03-.14.3-.22.63-.33.95a9.4 9.4 0 0 1-.46 1.09c-.04.07-.27.04-.42.06 0-.29 0-.59-.03-.88-.01-.09-.2-.25-.22-.24-.6.38-.99.9-1.69 1.29-3.37 1.85-6.43 4.25-9.61 6.43-.45.32-.87.67-.73 1.21.07.25.53.4.81.6m-61.56 27.28v-.06l-.01.04-.09.12.1-.1m-4.56 2.41c-1.41.13-2.7-.1-4.01-.45-.67-.18-.64-.93-.46-1.31.62-1.33 1.48-.22 2.27-.14 3.3.31 7.55-3.2 8.05-6.6.4-2.62.73-5.24 1.06-7.87.07-.49.02-1.44 0-1.44-3.02-.12-2.14-2.47-2.26-4.01-.17-2.27-1.48-3.86-2.85-5.43-.1-.12-1.23.45-1.76.86-1.16.9-1.06 2.31-1.14 3.57-.04.56.27 1.52.67 1.67.8.3 1.06.79.84 1.38-.26.68-.99.63-1.58.37-1.07-.45-2.08-1.06-3.18-1.43-4.34-1.48-7.79.72-11.23 2.8-.16.1-1.05-.28-.53.4.75.99 1.7 1.8 2.5 2.75 1.63 1.9 2.19 4.29 2.98 6.56.16.45.2.93.3 1.4.4-.22.87-.38 1.23-.67.58-.45 1.1-.97 1.64-1.48 2.37-2.27 4.72-4.56 7.8-5.9.2-.1.6.03.74.19.17.17.32.66.23.75-2.26 2.17-4.44 4.45-6.9 6.38-1.63 1.29-2.79 4.38-1.67 6.08 2.13 3.22 5.5 4 8.93 3.45 1.62-.26 1.8-2.75 2.79-4.19a6.9 6.9 0 0 1-4.46 2.31zm5.5-5.12l.18-.54c0-.03-.1-.09-.15-.13a6.5 6.5 0 0 0-.97 3.32l.94-2.65zm23.36-11.37c.2.32-.24 1.86.4 1.64 1.47-.51 2.68-1.72 4.02-2.6 2.41-1.58 4.8-3.19 7.28-4.67 2.3-1.38 4.26-2.94 4.46-5.82.02-.26-.3-.61.23-.7.04.26 0 .59.14.77.54.67-1.52 3.07 1.44 2.1.38-.13.69-.46 1.04-.67.1-.06.26-.05.38-.07-.08.1-.16.22-.26.3-1.48 1.11-3.53 1.69-3.45 4.16.02.88 1.76 1.59-.33 2.9a66.14 66.14 0 0 0-11.82 9.73c-3.63 3.68-7.17 7.45-10.83 11.1-.8.8-1.79 1.89-3.08 1.48-.35-.12.26-1.42.59-2.18.28-.66-.02-1.57-.06-2.37-.38.48-.76.98-1.16 1.45-1.93 2.28-2.09 5.32-3.52 7.82-.45.8-.6 1.75-.89 2.63.8-.28 1.58-.42 2.27-1.07 3.73-3.54 7.54-7 11.33-10.46 3.2-2.92 6.39-5.83 9.6-8.72 3.72-3.34 7.4-6.7 11.19-9.97 2.94-2.53 6-4.93 9.04-7.36 1.12-.9 2.54-1.53 3.43-2.6.78-.9 1.02-2.26 1.47-3.43 1.3-3.39 1.21-6.86.48-10.32-.43-2.06-1.12-4.06-1.74-6.07-.71-2.32-1.2-4.77-4.32-5.3-2.5-.43-4.99-1.07-6.72-3.14-.7-.85-1.14-2.05-2.03-2.61-1.6-1.03-3.48-1.65-5.2-2.52-1.06-.54-2.22-1.93-3.01-1.73-2.86.73-5.43 2.23-8.36 3.03-5.58 1.53-11.1 3.33-16.77 4.55-4.92 1.06-9.83 2.14-14.79 2.97-5.15.87-9.83 2.95-14.57 4.93-.12.06-.2.2-.31.31.14.03.29.1.43.08 2.47-.2 4.81-.55 7.32.62 4.76 2.22 9.82 3.86 13.58 7.74a25.92 25.92 0 0 1 5.55 8.38c.24.59.04 2.1 1.13 1.58 4.68-2.21 9.25-4.68 13.88-7 .5-.24 1.15-.77 1.77-.1.3.34.26.7-.12.91-2.37 1.35-4.65 2.96-7.18 3.93-2.27.87-6.21 4.46-5.87 6.55.54 3.28 1.56 6.48 2.2 9.75.74 3.75 1.1 7.55.55 11.37l-.33 2.1c.1 0 .25.06.3.01.68-.64 1.68-.88 1.83-2.12.47-3.9 0-7.74-.57-11.58a34.62 34.62 0 0 0-1.87-7.56c-.15-.38-.4-.73-.61-1.1.37-.13.76-.42 1.1-.37.35.06.8.37.95.68 1.61 3.32 1.58 7.01 2.49 10.5.56 2.16-.3 4.56.9 6.61.31.52 1.18.73 1.79 1.08.15-.53.18-1.15.5-1.57.67-.93-.92-1.75-.15-2.46.89-.81.5-1.77.68-2.66.03-.15 0-.31.03-.46 0-.05.15-.07.23-.1l.15.52.38 1.55c.9-.68 2.43-.84 2.54-2.13.15-1.85-.06-3.73-.1-5.6 0-.2.15-.42.23-.64.1.15.3.28.31.44.14 1.06.25 2.13.4 3.56m68.41-43.12c.17-.54.3-.9.41-1.28 1.73.63 2.83-.73 4.13-1.33 1.26-.59 3.4-.58 3.6-1.94.75-5.15-.57-9.94-3.67-14.2-.08-.12-.09-.29-.13-.43.19.05.46.05.56.17 2.8 3.4 4.1 7.38 4.58 11.66.1.85.14 1.72.21 2.57.97-.46 2.72-.83 2.79-1.4.58-4.96-.44-9.74-2.35-14.35-.29-.69-.6-1.36-.9-2.04.25.1.6.15.76.34.22.28.25.69.44 1 2.5 4.07 3.29 8.6 3.59 13.24.03.53-.14 1.52.22 1.44.93-.2 2.46-.75 2.53-1.3.5-3.91.43-7.82-1.72-11.38-.17-.27-.34-.83-.22-.94.4-.35.8.03.99.35a18.21 18.21 0 0 1 2.28 10.21c-.03.44.03.87.05 1.31.47-.13 1.06-.13 1.4-.42 1-.83.48-2.08.7-3.13 0-.01-.24-.08-.36-.1-.4-.02-1 .37-1.07-.31-.06-.56.55-.54.96-.7.3-.1.67-.48.67-.74.05-1.77.02-3.55 0-5.32 0-.32-.15-.64-.15-.96 0-.15.17-.32.3-.45.02-.02.32.11.33.2.22 1.9.45 3.8.6 5.71.06.7.11.99.95.68 1.48-.56 3-1 4.52-1.44.61-.17 1.28-.17 1.92-.24-.57.26-1.2.45-1.7.8-.73.51-2.46.41-2.08 1.54.7 2.05-.03 3.87-.27 5.78-.07.62-.5 1.47.75.6.91-.64 1.33-1.55 1.8-2.46-.45-.08-.9-.14-1.35-.25-.16-.04-.38-.24-.38-.36 0-.19.15-.52.28-.54 3.13-.51 3.3-3.2 3.77-5.36.68-3.13.4-6.3-.95-9.3-.15-.32-.08-.74-.06-1.1.05-1.16 1-.62 1.09-.32.96 3.45 1.82 6.93 2.69 10.4.09.38.08.78.1 1.17.03.44.1.4.42 0 2.27-2.83 1.66-6 1.38-9.24-.17-2-.76-3.8-1.5-5.56-1.35-3.2-3.65-4.15-6.75-2.13-2 1.3-3.87 2.76-5.85 4.07-.46.3-1.16.25-1.75.36.08-.59.13-1.14.7-1.56 2.65-1.94 5.27-3.93 7.9-5.9 1.6-1.2 2.82-2.46.79-4.26-1.36-1.2-2.85-2.26-4.15-3.52-2.36-2.27-5.6-2.77-7.92-1-.7.52-1.2 1.27-1.79 1.91.23.12.45.24.69.35 2.46 1.12 4.99 2.13 6.85 4.19.14.15.25.33.37.49-.17-.05-.35-.08-.5-.16-1.71-.9-3.41-1.83-5.12-2.74-1.92-1-3.73-1.99-5.3.71-.53.92-.41.94.36 1.28a30.1 30.1 0 0 1 7.38 4.37c.23.19.3.55.45.83-.25-.04-.56 0-.74-.13a29.8 29.8 0 0 0-8.73-4.53c-.48-.15-1.37.95-2.06 1.47.23.19.44.45.71.56 2.1.85 3.9 2.15 5.61 3.56.32.27.55.63.82.94-.18.02-.4.1-.52.03-1.5-.9-2.95-1.93-4.52-2.72-1.02-.51-2.15-1.9-3.23-1.1-2.69 2-4.71 4.77-7.57 6.62-.43.28-.78.18-.93-.02-.15-.2-.13-.74.05-.92.73-.76 1.52-1.49 2.36-2.13 1.5-1.16 1.7-1.43 1.35-1.51-2.46-.54-4.62-2.4-7.4-1.64-.19.05-.56-.05-.65-.2-.1-.16-.07-.54.07-.68 1.4-1.45 2.8-.18 4.2.02 2.19.3 4.29 3.77 6.6.17.14-.23.36-.4.55-.6-.21-.13-.4-.3-.63-.38a26.14 26.14 0 0 0-6.95-1.5c-.2-.02-.38-.17-.56-.26.18-.1.36-.25.56-.3 2.7-.69 5.07.62 7.54 1.28.36.1.9.35 1.07.21.6-.47 1.06-1.1 1.58-1.65-.37-.16-.72-.37-1.1-.45-2.05-.41-4.1-.79-6.16-1.18-.27-.05-.75.08-.6-.4.06-.24.48-.57.7-.54 1.65.22 3.37.33 4.94.84 2.13.7 3.83 1.03 4.94-1.52.36-.83.19-.71-.44-.84-2.46-.48-4.92-1-7.37-1.53-.24-.05-.44-.27-.65-.42.37-.16.77-.5 1.1-.45 2.18.36 4.5.46 6.47 1.3 2.73 1.16 2.65-.95 3.02-2.2.3-1.02-.83-1.16-1.72-1.44-3.45-1.08-8.1.41-10.25 3.04-2.74 3.32-6.23 5.9-9.7 8.47-3.6 2.67-7.14 5.45-10.58 8.33-2.35 1.96-5.03 3.31-7.66 4.78-.32.17-.72.2-1.08.3.33.14.65.33.99.4 2.32.51 4.36 1.61 5.86 3.35 1.6 1.85 1.78 4.59 3.09 6.41 2.18 3.05 3.42 5.72.87 8.9-1.48 1.86.21 3.13.72 4.52.24.66 1.39-.26 2.06-.52 5.15-1.97 10.26-4.02 15.4-6.04.09-.04.2-.04.3-.06-.08.09-.14.2-.23.25-1.42.7-2.83 1.43-4.27 2.08-3.28 1.5-6.63 2.86-9.84 4.48-1.02.51-3.03.61-2.78 2.07.37 2.1 1.45 4.07 2.26 6.09.12.3.42.53.63.8.2-.31.54-.6.57-.94.16-1.72.57-3.44-.05-5.18-.14-.37.05-.86.1-1.3.16.06.46.1.46.15.16 1.64 1.06 3.18.7 4.9-.15.67.62.68 1 .97.05.04.27-.12.4-.19-1.34-1.06.46-1.79.33-2.76-.1-.74.09-1.56.33-2.28.2-.61.8 0 .8.08.02 1.28-.03 2.56-.08 3.84 0 .09-.05.18-.08.26.08 0 .2.03.26 0 .87-.5 1.78-.95 2.59-1.54 2.6-1.89 7.2-2.18 5.9-6.99m-117.32 38.28c.01.1.01.12 0 0m-.05-.35c-.07.07-.2.12-.2.19-.36 2.18-1.26 4.44-.92 6.51.59 3.67.3 7.52 1.98 11.01.16.33.04.8.05 1.2-.2-.21-.47-.39-.58-.64-.73-1.6-1.18-3.39-2.2-4.77-.9-1.2.72-3.34-1.82-3.97-.06-.02-.11-.07-.15-.16.27 1.62.56 3.23.9 4.84.67 3.13 2.02 6.04 3.18 9.01 1.15 2.96 3.56 4.91 5.7 6.94 1.94 1.82 4.6 2.96 7.05 4.18 1.31.66 2.65 1.9 4.32 1.1.75-.37 1.24-1.1 2.22-1.24.57-.08 1.07-.67 1.6-1.04-.47-.15-.96-.3-1.44-.47-.14-.05-.24-.18-.37-.27.15-.07.32-.23.43-.2 2.53.82 3.75-1.15 5.31-2.38.1-.08.16-.24.23-.35-.15 0-.3 0-.45.02-1.66.19-3.42.78-4.98.47-2.74-.54-5.54-1.27-7.75-3.2-1.1-.97-2.96-1.23-3.44-2.7-.98-2.98-1.68-6.06-2.48-9.1-.11-.44-.18-.9-.27-1.34.31.33.69.62.92 1 .28.46.42 1 .65 1.5.06.13.22.25.36.3.1.03.37-.09.37-.12-.02-.18-.09-.36-.15-.53-.37-.97-1.08-1.95-1.04-2.9.1-2.79-2.74-7.53-5.38-8.5-.23-.08-.5-.09-.74-.13-.2 3.1.74 6.1.54 9.23-.1 1.73.65 3.5 1 5.26.04.2-.04.4-.07.6-.11-.2-.3-.4-.33-.61-.22-1.45-.3-2.92-.64-4.34-1.07-4.46-1.37-8.98-1.36-14.05l-.05-.35zm-4.16 5.61c-.02-.17-.11-.33-.17-.49-.06.16-.18.32-.15.46l.45 2.69c-.05-.84-.05-1.91-.13-2.66zm.13 2.66c.03.48.08.89.19 1.1l-.19-1.1zm89.42-67.52l-.18-.02c.02 4.21-1.06.32-1.56.18-3.3-.94-6.6-.14-9.8.34-3.85.57-5.54 3.28-5.45 7.06.03 1.16 1.27 2.32-.04 3.48-.34.3-1 .55-.53 1.21l1.07-1.05c.39-.4.8-.9 1.4-.48.59.43.22.83-.23 1.16-.03.01.03.19.09.26.16.23.53.48.49.65a2.2 2.2 0 0 1-1.87 1.72c-.24.05-.55.1-.75-.01-1.36-.75.03 1.44-1.06.94-.08.27-.18.54-.21.81 0 .05.3.1.41.2.3.24.57.5.85.76l-.6.59-.25.29c.18.04.37.14.54.12 1.04-.12 1.82.05 1.98 1.3.05.46.41.88.63 1.31.06-.04.16-.08.17-.14.27-1.81.59-3.62.76-5.45.04-.44-1.13-.79-.48-1.43.8-.8 1.3 1.64 2.28.3.93.99 1.8 2.02 3.43 1.13.33-.18 1.18 0 1.42.3 1.1 1.35 2.23 1.19 3.78.68 1.37-.45 3.01.13 4.46-.52.44-.2.93-.46 1.37-.42 1.92.14 2.67-.35 2.46-1.73-.03-.16.06-.42.19-.5 1.7-1.01 1.6 2.13 3.22 1.35.09.17.18.33.25.5.05.16.05.45.12.46.24.05.53.08.73-.02.24-.12.55-.57.6-.54.56.37.5.93.45 1.53-.1 1.12-.96 2.52.07 3.29.75.56 1.74-.52 2.2-1.28.15-.23-.42-1.1-.86-1.42-1.67-1.23.14-2.32.08-3.47-.01-.27.1-.65.56-.5.4.14.72.35.65.85-.13 1.05 1.07 1.96.33 3.07.1 0 .25.04.26.02.37-1.04 1.12-1.95.63-3.2-.58-1.5-2.2-2.4-2.33-4.13 0-.16-.28-.3-.44-.46l-.09.3c-.22.89-.51 1.76-.63 2.66-.1.79-.47 1.15-1.24 1.21-.48.05-1 .06-1.4.26-.43.2-.81.26-1.1-.06-.18-.2-.16-.56-.2-.85-.04-.25.04-.7-.06-.74-.31-.12-.75-.21-1.03-.08-2.2 1.03-4.37 2.13-6.57 3.15-.26.12-.7-.12-1.04-.2.08-.2.1-.53.26-.6 1-.51 2.04-.94 3.03-1.45.44-.23 1.28-.23 1.15-.92-.13-.68-.61-1.06-1.47-.59-1.47.82-3 1.56-4.54 2.26-.34.15-1 .14-1.2-.07-.37-.41.23-.52.49-.64.56-.27.6-.63.27-1.07-.31-.41-.66-.49-1.14-.16-.16.1-.54.02-.77-.09-.12-.05-.18-.32-.21-.5-.05-.3.71-.55.1-.86-.51-.26-.78.21-1.16.47a3 3 0 0 1-1.42.49c-1.49.1.12-.96-.51-1.38-.59-.39-.9-1.06-1.83-.76-.4.13-.54-.4-.16-.6 1.06-.59 2.18-1.09 3.27-1.64.22-.11.4-.31.6-.47-.14-.04-.3-.15-.4-.12-.9.28-1.99-.68-2.28-.42-1.25 1.15-1.9.7-2.53-.5-.02-.04-.18 0-.27 0 .04.07.11.15.1.22-.07.98-1.09 1.79-1.56 1.7-1.52-.27.07-1.67-.62-2.38l.8-.4c.14-.06.31-.1.44-.18.04-.03.02-.27-.03-.3-.88-.4-.13-.76.05-1.1.33-.64.9-.37 1.2-.11 1.1.92 2.48.37 3.3.08 2.76-1 5.08.24 7.5.9.45.13.89-.37 1.42.25.82.95 1.97 1.62 3 2.4.07.05.28-.09.43-.13l-1.46-1.47c-.3-.3-.57-.63-.85-.94.19 0 .42-.06.56.02.96.57 1.85 1.27 2.87 1.7.44.19 1.57-.1 1.62-.33.14-.65-.1-1.4-.2-2.1-.02-.09-.07-.16-.11-.24-1.75 1.21-1.3-.87-1.97-1.25-.45-.26-.95-.41-1.43-.6.07.29.17.59.22.89.04.21.05.61 0 .62-.58.13-.86-.25-1.16-.66-.42-.55.14-1.76-1.33-1.7m-49.26 69.92l-.22-.4c-2 1.62-4.74 2.43-5.73 5.14-.06.15-.5.35-.56.3-.22-.2-.55-.54-.49-.72.8-2.42 1.35-4.88 1.32-7.44 0-.2.24-.4.37-.6.12.16.35.32.34.47-.05 1.57-.14 3.14-.22 4.72v.66c.17-.16.35-.3.52-.47 1.24-1.19.39-2.87 1.08-4.3.65-1.35.99-2.72 2.59-3.27.1-.04.24-.02.36-.02l-.3-1.9-.39.21c-.4.19-.56.98-1.17.52-.22-.17-.4-.73-.27-.94.28-.5.73-.9 1.15-1.3.08-.09.3-.05.44-.06l-.36-1.22c-.2.08-.38.19-.58.25l-1.28.35c0-.18-.08-.39 0-.51.36-.58.74-1.15 1.15-1.7.5-.67-.18-1.15-.26-1.72-.27.18-.52.4-.8.53-.46.21-1 1.11-1.34.54-.63-1.07.77-1.56 1.15-2.37l.25-.53c-.17.07-.33.19-.5.2-.9.07-1.27 1.72-2.22 1-.63-.49.19-1.22.72-1.69.15-.13.27-.3.4-.44-.17.05-.35.16-.52.15-.3-.02-.61-.07-.85-.22-.08-.05.14-.47.06-.65-.09-.18.99-.8-.2-.58-.23.03-.5-.22-.75-.34.13-.26.2-.6.42-.78.89-.7.37-1.44.1-2.17-.45.2-.88.42-1.34.57-.38.13-1.03.34-1.13.2-.25-.32-.1-.71.26-1.1.56-.61 1.9-1.06.71-2.3-.9-.93-1.05.36-1.6.39-.28.02-.68-.02-.86-.2-.25-.26-.08-.48.24-.74.4-.33.95-1.2.86-1.28-.5-.5-1.05-.03-1.52.24-.42.24-.85.5-1.21.12-.4-.41.17-.65.34-.97.28-.54 1.7-.71.56-1.77-.93-.88-1.46.07-2.13.3-.68.23-1.37 1.5-1.94.58-.4-.66.84-1.35 1.52-1.87.82-.62.83-.58.5-.81-1-.7-1.82.05-2.71.28-.79.2-1.56 1.4-2.23.69-.7-.75.6-.98 1.03-1.38.52-.48 1.19-.8 1.8-1.2-1.05-.83-1.64.34-2.45.52-1.1.23-2 1.38-3.3.74.81-.53 1.64-1.05 2.45-1.6.3-.2.54-.45.8-.68 0 0-.04-.1-.08-.1-.94-.22-1.36 1.14-2.96.28-1.65-.87-4.35.47-6.49 1.3-.13.05-.24.14-.37.22.11.1.2.23.33.28 1.65.6 3.33 1.13 4.96 1.77 3.13 1.24 6.06 2.74 8.24 5.43 1.75 2.16 2.76 4.7 4.07 7.08.8 1.43 1.62 3.1 1.56 4.64-.03 1.1.16 2.16.35 3.14.16.87 1.28.34 1.97.23.63-.09 1.24-.32 1.86-.49.74-.2 1.1.3 1.3.83.22.53-.36.55-.67.6-3.22.53-3.76 2.66-3.55 5.4.21 2.77-.2 5.5-.77 8.22-.11.5-.26 1.01-.35 1.52-.02.15.1.32.16.48 1.43-1.4 2.79-2.9 4.3-4.2.64-.55 1.6-.75 2.44-1.06.13-.05.54.22.54.3-.1.85.68.17.86.5.08-.2.22-.4.23-.61.02-1 0-1.98 0-3.19m101.55-48.22l.05.14c.54-.22 1.06-.5 1.62-.63 2.54-.61 5.1-1.41 6.96-3.21 1.93-1.87 4.08-3.73 4.7-6.53.11-.56.8-1.5-.2-1.78-.69-.2-1.7 0-1.95.98-1.03 4.01-3.22 6.61-7.65 7.6-3.04.66-7.07.04-8.4 4.24-.14.46-.62 1.14-1.16.79-.6-.39.27-.67.4-1.04l.56-1.55c-.4.15-.8.28-1.19.45-2.8 1.23-5.65 2.35-8.37 3.74-3.87 1.98-7.8 3.93-11.4 6.34-2.42 1.62-5.77 2.22-7 5.37-.07.18-.1.37-.16.55.15.02.34.1.45.05.97-.48 1.94-.99 2.9-1.5 4.02-2.1 8-4.28 12.05-6.3 3.96-1.97 7.98-3.83 12.02-5.63 1.86-.83 3.84-1.4 5.77-2.08m-54.09-1.87c.13-.76-.04-1.35-.88-1.45-.3-.04-.86.2-.95.45-.32.84-.46 1.74-.7 2.61-.18.64-.33 1.32-1.14 1.5.1-.65.35-1.32.26-1.95-.14-.95 1.65-2.24-.62-2.89-2.02-.57-4.34-2.33-4.16 1.8 0 .08-.1.16-.12.24-.19 1.15-.73 3.22-.5 3.3 1.59.6 3.35 1 5.05.28 2.9-1.24 5.85-2.39 9-2.68 1.9-.18 4.15.47 3.65-2.68-.1-.64.99-1.98-.99-1.56-1.14.25-.63 1.12-.87 1.7-.05.16-.29.3-.46.33-.12.02-.4-.24-.4-.26.17-.3.56-.66-.08-.79-.63-.13-1.01.19-1.14.86-.05.26-.38.5-.64.68-.07.06-.45-.12-.46-.21-.02-.23.17-.66.14-.67-1.13-.4-1.34.73-1.88 1.22-.35.33.16 1.22-.55 1.53-.34.15-.5-.12-.48-.47 0-.28-.04-.55-.06-.83-.14.3-.28.58-.4.88-.11.28-.12.65-.31.86-.38.41-.76.22-.74-.28.03-.51.28-1.01.43-1.52m-89.64 51.23c-.43-.08-.27-.26-.3-.76-.12-1.96-.17-3.93-.3-5.89-.38-5.17-.18-10.27 1.93-15.14.08-.18-.14-.48-.23-.73-.1.13-.27.23-.33.38-1.86 4.02-1.63 8.46-2.65 12.66-.58 2.4.62 4.75 1.3 7.07.12.4.1.84.13 1.26-.2-.26-.5-.5-.58-.78-.47-1.61-.96-3.22-1.32-4.85-.25-1.15.04-2.54-.52-3.48-.84-1.42-.8-2.93-1.14-4.4-.04-.16.07-.35.1-.52-.12.12-.25.34-.38.34-.18 0-.37-.17-.55-.26-.07 2.14-.27 4.29-.17 6.42.09 1.73.64 3.44.8 5.18.17 2.07 1.26 3.11 4.21 3.5m103.57-43.65l-.01.05v-.05zm.5.54c.53.16 0 1.45 1.1.96.22-.1.48-.11.72-.14.02 0 .13.26.1.29-.23.17-.5.29-.72.47-.2.16-.52.42-.49.58.14.7.38 1.39.59 2.08.27-.16.65-.26.8-.49 1.14-1.84.01-3.56-.38-5.31-.08-.36-.22-.36-.55-.17a299.98 299.98 0 0 1-5.62 3.06c-2.61 1.38-4.72 3.62-7.73 4.39-.08.02.21 1.43.33 2.2.17-.04.37-.02.5-.1 2.34-1.38 4.8-2.59 6.92-4.22 1.32-1.01 4-.7 3.95-4.12.15.19.28.46.48.52zm-34.26-13.06l.98.72c-.27.2-.53.45-.83.6-.2.12-.47.12-.71.16.22.14.42.34.66.38.74.13 1.49.2 2.23.28.02-.26.1-.72.05-.73-1.58-.45-.85-1.54-.64-2.38.29-1.16-.47-1.19-1.25-1.34-.46-.1-1.4-.4-1.01-.8 1.88-1.92 1.27-4.67 2.53-6.76.02-.03 0-.12-.02-.13-.35-.24-4.03 1.43-4.12 1.85-.22.99-.24 2.09-.72 2.92-.6 1.04-.78.89.34.85.26 0 .53.58.8.9.13-.41.28-.81.37-1.23.17-.71.28-1.44.46-2.15.05-.2.25-.37.38-.55.03.23.13.47.08.7-.28 1.49-.6 2.97-.92 4.46-.06.3-.22.59-.35.88-.05.1-.15.19-.22.28-.07-.2-.24-.46-.17-.58.8-1.47-.23-1.46-1.22-1.54-.09-.01-.13-.32-.25-.38-.08-.04-.39.16-.38.17.6 1.71.91 3.61 2.83 4.54.13.06.27.09.4.13.02-.16.1-.36.02-.46-.4-.6.03-.65.68-.79m-61.43 27.4c-1 .45-1.3.5-1.45.67-2.64 3.1-3.37 6.98-4.45 10.72-.02.06.02.13.04.2.04-.03.1-.06.11-.1.75-1.7 1.76-3.33 2.17-5.1.54-2.31 1.8-4.42 3.85-4.89 4.53-1.02 9.23-1.54 13.44 1.44.41.3 1.06.27 1.6.4-.25-.27-.44-.6-.74-.79-2.86-1.76-5.82-3.68-9.28-3.4-1.96.15-4.24-.08-5.29.85m82.76-11.63c.06 1.53.56 2.1 1.91 1.3 1.59-.93 3.17-1.86 4.78-2.74 2.4-1.31 4.89-2.5 7.23-3.92.96-.58-.28-1.27-.32-1.94-.17.05-.36.07-.52.16-3.44 1.9-6.88 3.83-10.33 5.73-.94.52-1.9.98-2.75 1.4m12.91 1.73c0-1.46-.38-2-.96-1.64-3.49 2.15-6.98 4.3-10.4 6.58-.32.2-.1 1.2-.13 1.84.25-.08.54-.11.76-.25 2.45-1.52 4.94-3 7.33-4.61 1.12-.77 2.71-.86 3.4-1.92m-97 28.8c-.16 1.83.03 1.96.13 1.78.88-1.47 3.74-.5 3.77-3.16.03-1.96.61-3.93.93-5.9.01-.04-.24-.2-.28-.17-1.36.8-2.96 1.36-2.87 3.4.03.75-.3 1.53-.46 2.3l-.52-1.8-.18-.78c-.18.32-.48.62-.5.94-.05 1.13-.02 2.26-.02 3.38m29.04 30.83c1.68.04 1.81-1.45 2.45-2.43.16-.24.16-.59.23-.89-2.15.56-4.88-1.35-6.49 1.52-.32.58-.92 1-1.39 1.5.71.1 1.42.25 2.13.28 1.02.05 2.04.02 3.07.02m95.2-73.47c-.01-.01-.21-.15-.31-.1-1.61.78-3.17 1.67-4.81 2.36-1.74.73-1.67 2-1.36 3.44 0 .04.08.1.1.1.52-.2 1.02-.46 1.55-.61 2.63-.74 4.86-1.85 4.83-5.2m-66.76 42.7c-.23.87-.29 1.05-.32 1.22-.46 2.21-.32 2.35-.1 2.11 1.55-1.69 4.23-2.18 5.06-4.6.23-.68.35-1.4.52-2.1-.57.31-1.2.57-1.72.95-1.32.93-2.93 1.53-3.44 2.42m-30.7 33.41v.1c.35-.02.82.1 1-.08.58-.54 1.04-1.19 1.52-1.81.01-.01-.22-.3-.34-.3-1.98-.04-3.98-.23-5.93-.01-.76.08-1.4 1.1-2.1 1.7.54.13 1.07.36 1.62.39 1.4.05 2.82.01 4.24.01m5.42-6.37l.22-.63c.43-1.36.83-2.72 1.28-4.07.11-.35.17-.64-.23-.77-.37-.11-.76-.15-1.14-.21.21.18.46.34.63.57.33.44.16.93-.3 1.04-2.08.52-3.21 2.42-5.05 3.28-.18.09-.28.32-.42.5.18.02.36.06.54.07l4.47.22m19.02-19.49l.11.47.38-.23c2.36-1.52 3.6-3.8 4.46-6.34.07-.22.11-.46.17-.69-.07.03-.14.05-.2.09-2.79 1.42-5.05 3.2-4.92 6.7m38.08-43.54c-2.3.2-4.03 1.73-6.06 2.58-.1.04.12.85.26 1.28.02.08.43.15.59.08 2.3-1.1 4.59-2.2 6.86-3.33.5-.25.91-.64 1.36-.96l-1.38.19-1.63.16m3.77-15.9c.14.54.06.15-.07-.21-.28-.82-.53-1.65-.93-2.41-.2-.36-.66-.72-1.06-.8-.32-.07-.73.29-1.1.46.36.54.75 1.07 1.05 1.63.25.46.4.97.58 1.46.02.03-.16.18-.2.17-.33-.14-.67-.28-.97-.47-.25-.16.02-.96-.55-.64-.58.33-1.52.72-1.35 1.5.5 2.4 1.75.27 2.65.33.55.03 1.12-.2 1.68-.3-.03.1-.03.24-.1.3-.16.12-.44.16-.52.3-.22.45.08.88.45.81.55-.1.7-.65.44-2.13m4.7 25.09c-.74-.2-.48-.96-1.12-.57-3.6 2.2-7.18 4.42-10.75 6.65-.13.08-.13.38-.2.57.2 0 .43.05.57-.03 2.51-1.52 5-3.07 7.53-4.56 1.16-.69 2.4-1.25 3.97-2.06m-25.21-18.23c.24.12.4.2 0 0m-.13-.06c-.06.21-.15.42-.18.64-.17 1.55-.37 3.1-.48 4.66-.06.7-.06 2 .16 2.06 1.27.32 1.37-.7 1.37-1.6.02-1.67 1.51-3.44-.74-5.7l-.13-.06zm-51.11 79.4c-1.64-.42-1.73.37-2.11.77.24.16.46.36.72.48 2.47 1.18 4.68.56 6.74-.98.07-.06.11-.13.17-.2-.08-.02-.16-.07-.24-.07h-5.28m54.4-97.67c-.6.07-.95.13-1.3.14-3.38.04-6.27 1.07-8.12 4.01-.5.81-.75 1.77-1.12 2.66.67-.62 1.42-1.17 1.99-1.87.36-.44.29-1.33.7-1.63a15.03 15.03 0 0 1 6.65-2.8c.33-.04.63-.26 1.2-.5m-28.07 73.67l-.07.5.45-.3c1.9-1.34 1.96-3.63 2.92-5.47.09-.16.03-.4.04-.6l-.66.27c-2.64 1.06-2.4 3.45-2.68 5.6m85.17-57.08l.03.4a5.35 5.35 0 0 1 .07 0l-.1-.4m-3.03 4.21c0 .13.18.4.25.4 2.08-.26 3.03-1.43 2.81-4.2-2.27.27-2.88 1.87-3.06 3.8zm3.13-3.8c.05.15.02.04 0 0zm5.14-3.06c3.05-.03 2.1-2.37 2.65-3.77.02-.04-.17-.23-.25-.22-2.27.26-2.9 1.75-2.81 3.73 0 .13.39.24.4.26m-93.43 62.33c2.39-1.1 1.61-3.47 2.24-5.27-.16-.01-.35-.08-.49-.02-2.23.97-1.92 3.02-2.2 5.6.06-.21.19-.19.45-.3zm95.57-60.63c-1.32.01.4-1.37-.44-1.37-2.25-.02-2.27 1.79-2.5 3.32-.03.23.2.7.3.7 1.7-.03 2.55-.96 2.64-2.65m-11.04 3.51c-.32-.25-.47-.44-.54-.42-1.57.55-3.4.86-3.1 3.17.03.22-.06.45-.08.67 0 .17.02.33.03.5.4-.82 2.73.28 1.88-1.82-.08-.2.35-.83.4-.82 1.57.48.42-1.19 1.4-1.28m-33.72 23.57c-.12-.03-.3-.11-.36-.06-1.53 1.04-3 2.17-4.59 3.13-1.46.9-2.5 2.59-4.44 2.53-.39 0-.55-.06-.62.27-.08.38-.07.78-.1 1.17.32-.12.67-.19.95-.37 1.92-1.28 3.89-2.51 5.73-3.9 1.16-.86 2.82-1.13 3.43-2.77m-88.62 13.4c-1.82 1.16-1.63 2.94-1.94 4.48-.13.6-.05 1.24-.06 1.86.84-.3 1.28-.85 1.63-1.7.42-.99-1.55-.3-.63-.74 1.61-.77.24-2.48 1.4-3.22l-.4-.68m90.57-17.62c-.17-.1-.3-.24-.36-.22-1.12.54-2.27 1.01-3.33 1.65-2.41 1.47-4.78 3.03-7.17 4.55-.26.16-.54.28-.8.45-.02.01.1.32.13.32.33-.06.7-.08.97-.24a703.9 703.9 0 0 0 7.33-4.45c1.06-.65 2.1-1.34 3.23-2.06m-15.12-5.93c-.32-.74-.66-1.56-1.05-2.35-.06-.12-.43-.22-.55-.15-.15.09-.3.4-.25.55 1.12 3.1 2.38 6.15 2.99 9.4 0 .06.09.1.13.16.02-.1.07-.2.05-.3l-1.32-7.3m-61.24 20.57c.02.04.07.24.19.38.06.07.33.09.36.04.08-.1.11-.31.05-.41a17.72 17.72 0 0 0-4.24-5.05c-.1-.08-.3-.05-.46-.07.1.11.2.24.33.33.63.48 1.47.77.74 1.88-.38.57-.33 1.42-.48 2.14.27-.12.7-.18.77-.37.85-2.08 1.03-1.17 1.24.23.15 1 1.4-.75 1.54.52l-.04.38m115.14-37.18c-.03-.03-.14-.23-.22-.22-2.48.32-1.74 2.47-2.3 3.9 0 .03.15.2.2.18 1.95-.53 2.09-2.16 2.32-3.86m-57.1-5.56l3.14-1.61c-.61-.27-1.3-.87-1.82-.75-1.08.26-2.06.9-3.08 1.38l1.76.98m12.84 11.6c-.08.44-.12.88-.18 1.31.56-.14 1.16-.2 1.68-.44.65-.3-.13-.64-.08-.94.18-1.03-.62-2.06.01-3.08.06-.1-.06-.29-.1-.44-.22.13-.59.22-.64.4-.2.64-.3 1.31-.58 2.65l-.11.54zm-7.2-11.12c-1.1.62-2.12 1.2-3.11 1.82-.02.01.55 1 .58 1 1.35-.63 2.66-1.32 3.98-2-.66.03-1.22-.14-1.45-.82m-93.73 46.56l.23.28c.1-.17.28-.34.32-.53.48-2.05.93-4.1 1.39-6.15.04-.2.04-.4.07-.59-.16.13-.36.23-.47.39-1.36 1.99-1.05 4.34-1.54 6.6m38.4 29.88l1.03-.78c-.09-.07-.19-.21-.26-.2-2.2.45-2.25-1.5-3.04-2.6-.18-.25-.2-.6-.36-.88-.32-.54-.49-.22-.63.14-.3.7 2.27 4.34 3.26 4.32M1299.8 1784c1.25-.08 2-.18 2.76-.16 1.05.02.68-.84.9-1.32.04-.08-.28-.42-.35-.4-1.03.33-2.15.52-3.31 1.88m6.55 1.47c.11-.64.24-1.3.34-1.98 0-.09-.2-.3-.24-.28-.76.33-1.52.7-2.28 1.06.45.62 1 1.1 2.18 1.2m49.38-49.33c.1.33.15.53.2.74.35-.3.9-.54.98-.89.29-1.17.42-2.4.58-3.6.03-.23-.06-.47-.1-.7-.24.16-.54.29-.7.51-.62.85.92 1.92-.3 2.79-.34.24-.46.78-.66 1.15m17.7 16.08l-1.07.9c.22.17.51.54.63.49 1.13-.48 2.23-1.02 3.35-1.55-1.01-.55-1.89-.01-2.91.16m-56.29 60.93c-1.67-.42-1.94-2.02-2.93-3-.25-.25-.63-.36-.96-.53l.48.78c.4.65.82 1.28 1.2 1.93.41.7 1.05 1.03 1.82 1.15.09 0 .2-.16.4-.33m-13.4-32.8c-.15-.16-.27-.37-.34-.35-1.15.23-2.3.48-2.78 1.74-.03.08.2.35.23.34 1.05-.38 2.12-.74 2.89-1.72m2.37 30.08c-.8.74.08 1.04.23 1.43.46 1.24 1.07 2.42 2.45 2.96l-.99-1.63-1.7-2.76m-15.02-32.59c1.43-.15 1.25-1.36 1.7-2.1-.07-.04-.14-.12-.22-.11-1.23.06-1.47 1.01-1.7 1.93-.02.08.16.2.22.28m81.27-43.47l-2 1.3c.19.14.44.44.55.4.86-.35 1.7-.76 2.54-1.15l-1.09-.55m-70.23 77.51c-.4-1.41-.77-2.75-1.17-4.08-.06-.18-.29-.3-.44-.45 0 .13 0 .26.02.38.29 1.28.56 2.57.89 3.84.05.2.33.35.5.53l.2-.22m-3.89-28.64c.95-.25 1.6-.71 1.65-1.67 0-.1-.19-.3-.24-.28-.76.24-1.6.43-1.61 1.45 0 .19.15.38.2.5m81.84-48.36l-1.18-1.33c-.31.27-.82.5-.88.82-.05.33.32 1.05.5 1.05.49-.01.96-.31 1.56-.54m-84.14 40.97c-.03-.02-.21-.22-.27-.19-.63.33-1.25.7-1.86 1.06.12.16.3.47.36.45.7-.2 1.8.11 1.77-1.32m64.98-31.08c-.17.41.05 1.08.53 1.7.09-.98.21-1.96.24-2.94.01-.3-.24-.6-.37-.89-.1.59-.22 1.18-.4 2.13m-44 67.14c.93.39.87.06.71-.17-.66-.96-1.36-1.9-2.07-2.83-.05-.07-.26-.03-.4-.05.45.83.88 1.67 1.34 2.49.18.32.45.6.42.56m7.03-16.68c.08-.98.48-.78 1.06-.8.5 0 .17-.56-.1-.84-.75.78-2.35 1.04-2.14 2.3.08.46.93-.36 1.18-.66m-18.05-14.03c-.02 0-.11-.1-.22-.11-1.06-.03-1.18.77-1.31 1.52-.01.08.2.28.3.27 1.03-.02 1.14-.8 1.23-1.68m-5.58 21.09c-1.07.1-1.64.08-1.66.17-.13.6-.16 1.23-.17 1.85 0 .1.27.31.3.3.92-.55.06-1.68 1.53-2.32m-2.4-25.89c.89.14.78-.57.9-1.04.03-.1-.22-.4-.32-.4-.68.1-1.26.3-1.26 1.16 0 .72.5.09.67.28m10.73 35.25l-.13.1c.39.74.72 1.5 1.21 2.17.38.52.73 1.19 1.57 1.13l-2.65-3.4m-14.35-39.07c-.08-.04-.2-.12-.23-.1l-1.91 1.73c.1.07.2.22.29.2 1.08-.1 1.47-.93 1.85-1.83m67.25-25.47l-1.3.78a.98.98 0 0 0-.22.18c.33.48.69.94 1.03 1.41l.5-2.37m-61.54 28.77c1.02.01 1.45-.54 1.64-1.32.02-.06-.2-.27-.33-.27-1.07-.07-1.04.86-1.36 1.48-.01.03.05.1.05.1m6.73 6.47c.4-.6.76-1.18 1.14-1.74.17-.24.36-.45.55-.68-.35.1-.71.16-1.05.29-.9.35-.6 1.3-.95 1.93l.31.2m5.4 28.3c-.65.45-.07.8.08 1 .52.69 1.15 1.3 1.75 1.93l.12-.08-1.95-2.86m-12.63-31.2l1.24-1.11c-.12-.09-.27-.26-.38-.24-.69.1-1.39.22-1.5 1.09 0 .04.29.12.64.27m-1.57-.2l-.19-.3c-.55.38-1.4.43-1.52 1.27 0 .07.2.16.3.24.36-.5 1.36-.26 1.41-1.2m87.18-45.24l-1.46-1.73c.07.84 1.05 1.44.63 2.42-.04.1.18.3.28.44l.55-1.13m-80.4 39.72c-1.07-.26-1.19.43-1.49.93.07.03.15.1.18.09.5-.26 1.42.12 1.42-.87 0-.1-.16-.2-.11-.15m-5.45 10.6c-.2-.24-.29-.42-.37-.42-1 .02-.85.77-.87 1.4 0 .06.06.13.1.2l1.14-1.17m-10.54-7.28c.2.14.35.32.48.31.44-.01.85-.2.7-.7-.07-.24-.42-.41-.64-.61l-.54 1m80.17-52.14l-.24.04c.08.06.15.14.24.16 1.2.29 2.38.57 3.58.84.13.03.27.02.4.03-.12-.12-.23-.32-.37-.36-1.2-.25-2.39-.47-3.61-.71m-64.92 51.72c-.63.52-1.7.28-2.01 1.25-.01.03.14.14.16.13l2.14-1.2-.29-.18m-18.18 10.02l.21.83.45-2.88c.02-.12-.07-.26-.1-.38-.2.8-.37 1.62-.56 2.43m102.61-26.37c.14.26.25.6.34.6.94-.07.5-.75.51-1.22 0-.14-.14-.28-.22-.42l-.63 1.04m-102.55 28.73c0 .38-.04.7 0 1.02.08.48.2.96.3 1.44l.02-3.52c-.82.18-.02.8-.32 1.06m102.69-23.78c-.4.7-.22 1.3.34 1.86l.49-1.02c-.17 0-.43.04-.48-.04-.16-.22-.23-.5-.35-.8m-93.97 10.34l1.66-.98c-.1-.06-.23-.19-.27-.17-.56.32-1.11.67-1.66 1l.27.15m4.08 5.5l1.92-1.11c-.05-.05-.13-.15-.16-.14l-1.97.9.21.35m23.79-2.4c-.18-.12-.34-.25-.37-.23l-1.31 1.13c.05.06.14.17.15.16.5-.33.97-.67 1.53-1.06m-25-6.7c-.23-.16-.35-.27-.36-.26-.36.34-.7.68-1.04 1.03-.01.01.14.19.15.19l1.24-.95m7.97 8.45c.31-.55.52-.9.7-1.27.02-.02-.17-.2-.23-.18-.4.12-.91.13-.96.7 0 .1.11.19.49.75m6.78 33.22l-1.68-1.9c-.02.03-.07.09-.06.1l1.55 1.9c.01.01.13-.07.19-.1m-12.42-4.14c-.18.29-.4.54-.36.6.21.29.5.52.76.77.06-.07.19-.17.17-.2-.16-.36-.34-.7-.57-1.17m86.72-42.27l.2.3c.17-.32.36-.63.5-.96.04-.07-.11-.22-.18-.34l-.52 1"/><path id="kutnb" d="M1368.65 1763.35c-.8.46-1.57.88-2.33 1.33-4.63 2.74-9.52 5.16-13.8 8.35-3.05 2.28-6.6 3.75-9.51 6.2-1.73 1.45-3.87 2.43-5.84 3.59-.3.17-.72.12-1.09.18.24-.39.39-.9.73-1.14 4.71-3.42 9.49-6.75 14.16-10.2 4.84-3.6 10.46-5.76 15.9-8.24.4-.19 1.1-.8 1.78-.07"/><path id="kutnc" d="M1372.73 1766.12c-1.26.84-2.48 1.6-3.65 2.44-4.06 2.91-8.14 5.77-12.82 7.43-.22.08-.56-.2-.84-.3.21-.46.32-1.16.66-1.33 1.37-.7 2.86-1.13 4.21-1.87 2.82-1.53 5.56-3.24 8.36-4.8 1.22-.67 2.53-1.14 3.8-1.69.06-.02.16.07.28.12"/><path id="kutnd" d="M1303.74 1757c4.56.85 8.08 2.12 10.87 4.59.1.08.06.27.09.41-.31-.03-.7.04-.92-.09-3-1.8-6.16-3.21-9.91-3.5-.15-.02-.38-.44-.37-.66.02-.34.22-.68.24-.75"/><path id="kutne" d="M1309.61 1754.82c-.02-.9.4-1.1 3-.4 3.03.8 5.78 2.17 8.04 4.14.11.1.1.3.16.44-.22-.02-.5.02-.66-.07-3.11-1.74-6.16-3.59-10.07-3.82-.2 0-.39-.24-.47-.3"/><path id="kutnf" d="M1315.72 1754.8c.27-.33.53-.83.69-.8.77.13 1.6.27 2.25.65 2.03 1.15 4 2.41 5.98 3.65.13.09.16.34.24.51-.22.07-.53.25-.66.17-2.54-1.54-5.1-3.04-8.04-3.77-.14-.04-.24-.21-.46-.41"/><path id="kutng" d="M1328.4 1755c-1.54-.68-3.04-1.33-4.5-2.03-.1-.04-.01-.6.15-.8.11-.15.57-.22.76-.13 1.37.68 2.71 1.4 4.05 2.13.08.04.12.29.06.37-.1.16-.3.27-.52.46"/><path id="kutnh" d="M1345.07 1750c-1.71-.7-3.24-1.32-4.74-1.97-.13-.06-.22-.36-.16-.5.1-.2.43-.55.5-.53 1.6.7 3.43 1.12 4.56 2.49.05.07-.07.25-.16.51"/><path id="kutni" d="M1359.31 1783c-1.53-.25-.51-1.17-.44-1.63.19-1.32.59-2.61.93-3.9.05-.18.24-.32.37-.47.12.3.37.6.33.87-.24 1.6-.54 3.2-.86 4.78-.03.16-.25.27-.33.35"/><path id="kutnj" d="M1365.31 1777.8c.48 2.04.48 3.32-1.03 4.2-.06.03-.76-.47-.72-.63.37-1.47.84-2.92 1.27-4.37l.48.8"/><path id="kutnk" d="M1333.02 1750.51c-.6.27-.91.53-1.11.48-1.34-.33-2.66-.72-3.98-1.1.53-.13.08-1.1.93-.85 1.32.38 2.57.9 4.16 1.47"/><path id="kutnl" d="M1396.86 1714a11.8 11.8 0 0 1 6.14 2.4c.16.13.18.4.26.6-.55-.16-1.13-.27-1.64-.5-1.9-.83-3.74-1.83-5.99-1.07-.12.05-.52-.2-.51-.26.21-.9 1.09-.99 1.74-1.17"/><path id="kutnm" d="M1394.46 1720.01c1.08.42 2.72.43 3.71 1.62-.23.13-.56.42-.66.36-1.39-.7-3.3-.22-4.39-1.41-.22-.25.48-.65 1.34-.57"/><path id="kutnn" d="M1303.5 1791.21c-.11.8.02 1.7-.83.62-.3-.39-.63-.76-.98-1.12-.3-.32-.72-.9-.96-.85-1.12.24-2.2.65-3.28 1 .32.63.63 1.26.98 1.87.41.72 1.41 1.75.53 2.17-1.07.51-.8-1.12-1.48-1.63a7.02 7.02 0 0 1-2.02-2.37c-.49-.94.95-1.47 1.27-1.52 1.63-.24 3.04-2 4.6-1.15 1.07.58 1.56 2.08 2.17 2.98"/><path id="kutno" d="M1306.2 1817c-3.73-.67-7.35-1.58-10.23-4.02-.29-.25-.41-.65-.61-.98.42.12.77.24 1.19.51 2.42 1.6 5 3.01 8 3.61.61.12 1.23.23 1.83.4.1.02.12.25.18.4l-.36.08"/><path id="kutnp" d="M1292.55 1794.88c-.02-.37-.08-.75-.06-1.11.03-.6.1-1.18.16-1.77.68.49.5 1.44.63 2.16.43 2.43.73 4.9 1.06 7.36.02.14-.07.32-.11.48-.1-.1-.25-.17-.28-.3-.56-2.24-1.1-4.5-1.64-6.75l.24-.07"/><path id="kutnq" d="M1367.92 1740c-3.03-.55-6.22-.82-7.99-3.04-.54-.68-.64-1.96 0-2.94.04-.05.53 0 .54.04.23 1.15 1.55 1.77 2.12 2.62 1.28 1.94 3.75 1.65 5.55 2.52.22.1.34.32.51.49l-.73.31"/><path id="kutnr" d="M1367.27 1750.4v-2.06c-.05.02-.14.03-.14.05-.14.68-.25 1.37-.4 2.06-.05.2-.2.55-.3.55-.57 0-1.14-.07-1.7-.17-.07 0-.17-.25-.15-.37.27-1.4.55-2.78.84-4.17.02-.1.17-.2.26-.29.13.1.3.17.4.28.83.98 1.68 1.96 2.44 2.97.17.21.18.7 0 .84-.29.23-.8.28-1.21.41-.06-.17-.11-.35-.04-.1"/><path id="kutns" d="M1375.86 1748c-.52-.6-.95-.96-1.1-1.36-.05-.15.63-.42.98-.64.37.38.8.73 1.05 1.15.07.11-.42.4-.93.85"/></defs><g><g transform="translate(-1275 -1698)"><g><use fill="#363f40" xlink:href="#kutna"/></g><g><use fill="#363f40" xlink:href="#kutnb"/></g><g><use fill="#363f40" xlink:href="#kutnc"/></g><g><use fill="#363f40" xlink:href="#kutnd"/></g><g><use fill="#363f40" xlink:href="#kutne"/></g><g><use fill="#363f40" xlink:href="#kutnf"/></g><g><use fill="#363f40" xlink:href="#kutng"/></g><g><use fill="#363f40" xlink:href="#kutnh"/></g><g><use fill="#363f40" xlink:href="#kutni"/></g><g><use fill="#363f40" xlink:href="#kutnj"/></g><g><use fill="#363f40" xlink:href="#kutnk"/></g><g><use fill="#363f40" xlink:href="#kutnl"/></g><g><use fill="#363f40" xlink:href="#kutnm"/></g><g><use fill="#363f40" xlink:href="#kutnn"/></g><g><use fill="#363f40" xlink:href="#kutno"/></g><g><use fill="#363f40" xlink:href="#kutnp"/></g><g><use fill="#363f40" xlink:href="#kutnq"/></g><g><use fill="#363f40" xlink:href="#kutnr"/></g><g><use fill="#363f40" xlink:href="#kutns"/></g></g></g></svg>