<!--?xml version="1.0" encoding="UTF-8"?-->
<svg width="666px" height="490px" viewBox="0 0 666 490" version="1.1" xmlns="http://www.w3.org/2000/svg" xmlns:xlink="http://www.w3.org/1999/xlink" class="" style="">
    <!-- Generator: Sketch 50.2 (55047) - http://www.bohemiancoding.com/sketch -->
    <title>Group 4</title>
    <desc>Created with Sketch.</desc>
    <defs></defs>
    <g id="Page-1" stroke="none" stroke-width="1" fill="none" fill-rule="evenodd">
        <g id="Mainpage" transform="translate(0.000000, -194.000000)">
            <g id="accomplishment-adventure-clear-sky-585825-+-Path-3-+-Rectangle-34-+-Logo-Copy-Mask" transform="translate(0.000000, 70.000000)">
                <g id="Group-4" transform="translate(-139.000000, -97.000000)">
                    <path id="Path-3" stroke="#FFFFFF" stroke-width="10" transform="translate(394.939237, 446.963413) rotate(33.000000) translate(-394.939237, -446.963413) " d="M178.341427,838.45629L213.206229,731.551477L395.127043,689.130446L426.652524,529.137081L607.061119,613.077891L611.537047,55.4705368" class="hpJJzdCD_0"></path>
                    <path id="Rectangle-34" stroke="#FFFFFF" stroke-width="9" width="21" height="21" d="M 789.5,225.5 L 790.5,225.5 A 10,10,0,0,1,800.5,235.5 L 800.5,236.5 A 10,10,0,0,1,790.5,246.5 L 789.5,246.5 A 10,10,0,0,1,779.5,236.5 L 779.5,235.5 A 10,10,0,0,1,789.5,225.5" class="hpJJzdCD_1"></path>
                    <path id="Rectangle-34" stroke="#0078E8" stroke-width="6" width="6" height="6" d="M 790,233 L 790,233 A 3,3,0,0,1,793,236 L 793,236 A 3,3,0,0,1,790,239 L 790,239 A 3,3,0,0,1,787,236 L 787,236 A 3,3,0,0,1,790,233" class="hpJJzdCD_2"></path>
                </g>
            </g>
        </g>
    </g>
<style data-made-with="vivus-instant">.hpJJzdCD_0{stroke-dasharray:1219 1221;stroke-dashoffset:1220;animation:hpJJzdCD_draw_0 8200ms ease 0ms infinite,hpJJzdCD_fade 8200ms linear 0ms infinite;}.hpJJzdCD_1{stroke-dasharray:67 69;stroke-dashoffset:68;animation:hpJJzdCD_draw_1 8200ms ease 0ms infinite,hpJJzdCD_fade 8200ms linear 0ms infinite;}.hpJJzdCD_2{stroke-dasharray:19 21;stroke-dashoffset:20;animation:hpJJzdCD_draw_2 8200ms ease 0ms infinite,hpJJzdCD_fade 8200ms linear 0ms infinite;}@keyframes hpJJzdCD_draw{100%{stroke-dashoffset:0;}}@keyframes hpJJzdCD_fade{0%{stroke-opacity:1;}95.1219512195122%{stroke-opacity:1;}100%{stroke-opacity:0;}}@keyframes hpJJzdCD_draw_0{9.75609756097561%{stroke-dashoffset: 1220}58.536585365853654%{ stroke-dashoffset: 0;}100%{ stroke-dashoffset: 0;}}@keyframes hpJJzdCD_draw_1{9.75609756097561%{stroke-dashoffset: 68}58.536585365853654%{ stroke-dashoffset: 0;}100%{ stroke-dashoffset: 0;}}@keyframes hpJJzdCD_draw_2{9.75609756097561%{stroke-dashoffset: 20}58.536585365853654%{ stroke-dashoffset: 0;}100%{ stroke-dashoffset: 0;}}</style></svg>