<svg xmlns="http://www.w3.org/2000/svg" xmlns:xlink="http://www.w3.org/1999/xlink" width="101" height="26" viewBox="0 0 101 26"><defs><path id="ucgba" d="M132.44 22.37a3.02 3.02 0 0 0-1-1.14 2.62 2.62 0 0 0-1.5-.42c-.28 0-.56.04-.85.1-.29.07-.55.17-.78.31-.23.14-.41.32-.55.53a1.4 1.4 0 0 0-.22.79c0 .54.2.93.57 1.18.38.25.95.46 1.7.64l1.66.4c.81.18 1.48.54 2.02 1.1.53.54.8 1.23.8 2.05 0 .62-.13 1.16-.38 1.61-.26.45-.6.82-1.01 1.11-.43.29-.9.5-1.45.63-.54.13-1.1.2-1.66.2a6.1 6.1 0 0 1-2.48-.5 4.58 4.58 0 0 1-1.96-1.75l1.4-.96c.33.53.75.95 1.25 1.26.5.31 1.1.47 1.8.47.32 0 .65-.04.98-.11.33-.08.62-.2.88-.35.25-.15.46-.35.62-.6.15-.25.23-.53.23-.86 0-.58-.21-1-.64-1.25a5.64 5.64 0 0 0-1.56-.6l-1.58-.37c-.2-.05-.46-.13-.8-.25a3.8 3.8 0 0 1-.99-.51c-.32-.23-.6-.53-.83-.9a2.54 2.54 0 0 1-.34-1.37 3.06 3.06 0 0 1 1.32-2.64c.4-.28.86-.49 1.37-.63a5.97 5.97 0 0 1 3.83.26c.7.31 1.23.85 1.6 1.6zm-20.32 3.47c.04.57.18 1.12.42 1.63a4.3 4.3 0 0 0 2.22 2.19 4 4 0 0 0 1.6.32c.88 0 1.63-.2 2.27-.6.63-.4 1.11-.87 1.44-1.4l1.26 1.04c-.69.87-1.45 1.5-2.28 1.87a6.41 6.41 0 0 1-5.07.11 5.59 5.59 0 0 1-3.14-3.19 6.27 6.27 0 0 1-.45-2.41c0-.87.14-1.68.44-2.42a5.84 5.84 0 0 1 3.09-3.19c.7-.3 1.47-.46 2.3-.46.87 0 1.65.16 2.35.47a5.21 5.21 0 0 1 2.81 3.07c.25.7.38 1.44.38 2.23v.74zm7.85-1.33c0-1.1-.33-2-.98-2.67a3.67 3.67 0 0 0-2.77-1.03 4.31 4.31 0 0 0-3.72 2.32c-.22.45-.33.9-.33 1.38zM97.2 19.63a11.86 11.86 0 0 1 .08 1.85h.05c.18-.31.4-.6.69-.86a4.56 4.56 0 0 1 2.04-1.13c.39-.1.77-.16 1.15-.16 1.48 0 2.58.4 3.28 1.18.71.78 1.07 1.89 1.07 3.33v7.32h-1.63v-6.38a5.4 5.4 0 0 0-.67-2.94c-.45-.69-1.27-1.03-2.47-1.03-.08 0-.32.04-.7.1-.37.07-.77.25-1.2.54-.41.3-.79.74-1.12 1.33a5.1 5.1 0 0 0-.5 2.47v5.91h-1.62v-9c0-.3-.02-.7-.04-1.17-.02-.48-.05-.93-.09-1.36zm-7.06 11.53H88.5V19.63h1.64zm.37-15.96c0 .35-.13.63-.37.86a1.2 1.2 0 0 1-.82.33c-.3 0-.57-.11-.82-.33a1.1 1.1 0 0 1-.37-.86c0-.34.13-.63.37-.85.25-.22.52-.33.82-.33.3 0 .57.1.82.33.24.22.37.5.37.85zm-7.9 15.96H81V12.54h1.62z"/><path id="ucgbb" d="M54.23 25.83c.05.58.2 1.12.42 1.63a4.3 4.3 0 0 0 2.23 2.2c.5.2 1.03.31 1.6.31.88 0 1.63-.2 2.27-.6.63-.4 1.12-.87 1.45-1.4l1.26 1.04c-.7.87-1.46 1.5-2.29 1.87a6.42 6.42 0 0 1-5.07.11 5.6 5.6 0 0 1-3.14-3.19 6.26 6.26 0 0 1-.46-2.41c0-.87.15-1.68.45-2.41a5.84 5.84 0 0 1 3.09-3.2c.7-.3 1.47-.45 2.3-.45.87 0 1.65.16 2.35.47a5.21 5.21 0 0 1 2.82 3.06c.24.7.37 1.45.37 2.23v.74zm7.87-1.33c0-1.1-.33-1.99-1-2.67a3.68 3.68 0 0 0-2.76-1.02 4.32 4.32 0 0 0-3.72 2.32c-.23.44-.34.9-.34 1.37z"/><path id="ucgbc" d="M76.4 20.81l-6.78 8.87H90.13v1.48H67.25v-1.18l6.77-8.87H67.6v-1.48h8.8z"/><path id="ucgbd" d="M80.17 38v-1.37H153V38z"/></defs><g><g transform="translate(-52 -12)"><g><use fill="#0074e4" xlink:href="#ucgba"/></g><g><g><use fill="#8c9093" xlink:href="#ucgbb"/></g><g><use fill="#8c9093" xlink:href="#ucgbc"/></g></g><g><use fill="#8c9093" xlink:href="#ucgbd"/></g></g></g></svg>