<?xml version="1.0" encoding="UTF-8"?>
<svg width="190px" height="34px" viewBox="0 0 190 34" version="1.1" xmlns="http://www.w3.org/2000/svg" xmlns:xlink="http://www.w3.org/1999/xlink">
    <!-- Generator: Sketch 50.2 (55047) - http://www.bohemiancoding.com/sketch -->
    <title>Logo</title>
    <desc>Created with Sketch.</desc>
    <defs></defs>
    <g id="Page-1" stroke="none" stroke-width="1" fill="none" fill-rule="evenodd">
        <g id="Mainpage" transform="translate(-20.000000, -15.000000)">
            <g id="Logo" transform="translate(20.000000, 15.000000)">
                <path d="M40.0274282,25.0526316 L37.8938772,25.0526316 L37.8938772,0.701473684 L40.0274282,0.701473684 L40.0274282,25.0526316 Z M50.3308544,4.18021053 C50.3308544,4.63116015 50.1692233,5.0015775 49.8459564,5.29147368 C49.5226895,5.58136987 49.1671012,5.72631579 48.7791809,5.72631579 C48.3912606,5.72631579 48.0356723,5.58136987 47.7124054,5.29147368 C47.3891385,5.0015775 47.2275074,4.63116015 47.2275074,4.18021053 C47.2275074,3.7292609 47.3891385,3.35884355 47.7124054,3.06894737 C48.0356723,2.77905118 48.3912606,2.63410526 48.7791809,2.63410526 C49.1671012,2.63410526 49.5226895,2.77905118 49.8459564,3.06894737 C50.1692233,3.35884355 50.3308544,3.7292609 50.3308544,4.18021053 Z M49.8459564,25.0526316 L47.7124054,25.0526316 L47.7124054,9.97810526 L49.8459564,9.97810526 L49.8459564,25.0526316 Z M59.0826071,9.97810526 C59.1257093,10.3861073 59.1526478,10.7887349 59.1634234,11.186 C59.174199,11.5832651 59.1795867,11.9858927 59.1795867,12.3938947 L59.2442397,12.3938947 C59.4813021,11.9858927 59.7830134,11.610107 60.1493826,11.2665263 C60.5157517,10.9229457 60.925217,10.6276854 61.3777907,10.3807368 C61.8303644,10.1337882 62.3098698,9.94052701 62.8163213,9.80094737 C63.3227729,9.66136772 63.8238291,9.59157895 64.319505,9.59157895 C66.2591066,9.59157895 67.6922351,10.1015738 68.6189336,11.1215789 C69.5456321,12.141584 70.0089744,13.5964116 70.0089744,15.4861053 L70.0089744,25.0526316 L67.8754234,25.0526316 L67.8754234,16.7101053 C67.8754234,15.0351495 67.5844875,13.7521097 67.0026071,12.8609474 C66.4207266,11.969785 65.3431864,11.5242105 63.769954,11.5242105 C63.6621984,11.5242105 63.3604871,11.5671575 62.8648111,11.6530526 C62.3691352,11.7389478 61.8465282,11.975156 61.2969744,12.3616842 C60.7474206,12.7482125 60.2571398,13.3279961 59.8261173,14.1010526 C59.3950947,14.8741091 59.1795867,15.9477826 59.1795867,17.3221053 L59.1795867,25.0526316 L57.0460356,25.0526316 L57.0460356,13.2957895 C57.0460356,12.8877874 57.0298725,12.3724242 56.9975458,11.7496842 C56.9652191,11.1269443 56.9275052,10.5364238 56.884403,9.97810526 L59.0826071,9.97810526 Z M88.8466046,16.3557895 C88.8466046,14.9170454 88.4155885,13.7521097 87.5535434,12.8609474 C86.6914983,11.969785 85.4846532,11.5242105 83.932972,11.5242105 C83.2433359,11.5242105 82.5752609,11.6584197 81.9287271,11.9268421 C81.2821932,12.1952645 80.7164846,12.5549451 80.2315842,13.0058947 C79.7466839,13.4568444 79.3587694,13.9722076 79.0678291,14.552 C78.7768889,15.1317924 78.631421,15.7330495 78.631421,16.3557895 L88.8466046,16.3557895 Z M78.5667679,18.0951579 C78.6314213,18.8467406 78.8146031,19.5553651 79.1163189,20.2210526 C79.4180347,20.8867402 79.8167246,21.4611555 80.3124006,21.9443158 C80.8080765,22.4274761 81.3791728,22.8086302 82.0257067,23.0877895 C82.6722405,23.3669488 83.3726417,23.5065263 84.1269312,23.5065263 C85.269141,23.5065263 86.2550903,23.2434763 87.0848087,22.7173684 C87.9145272,22.1912605 88.5448882,21.584635 88.9759108,20.8974737 L90.6245638,22.2503158 C89.7194164,23.3884267 88.7226917,24.2044186 87.6343597,24.6983158 C86.5460278,25.192213 85.3768966,25.4391579 84.1269312,25.4391579 C83.0062725,25.4391579 81.9664462,25.2405283 81.007421,24.8432632 C80.0483958,24.445998 79.2240775,23.8930562 78.5344414,23.1844211 C77.8448053,22.4757859 77.3006475,21.6383206 76.9019516,20.672 C76.5032557,19.7056794 76.3039108,18.6534794 76.3039108,17.5153684 C76.3039108,16.3772575 76.497868,15.3250575 76.8857883,14.3587368 C77.2737086,13.3924162 77.8124787,12.5549509 78.5021148,11.8463158 C79.191751,11.1376807 79.9999061,10.5847388 80.9266046,10.1874737 C81.8533032,9.79020854 82.8554156,9.59157895 83.932972,9.59157895 C85.0751818,9.59157895 86.098845,9.79557691 87.0039924,10.2035789 C87.9091398,10.611581 88.6688057,11.1537861 89.2830128,11.8302105 C89.89722,12.506635 90.36595,13.3011533 90.6892169,14.2137895 C91.0124838,15.1264256 91.1741148,16.0981001 91.1741148,17.1288421 L91.1741148,18.0951579 L78.5667679,18.0951579 Z M105.130439,13.5534737 C104.807172,12.9307337 104.376156,12.4368439 103.837378,12.0717895 C103.2986,11.706735 102.6413,11.5242105 101.865459,11.5242105 C101.49909,11.5242105 101.127339,11.5671575 100.750194,11.6530526 C100.373049,11.7389478 100.033624,11.873157 99.7319084,12.0556842 C99.4301926,12.2382114 99.187746,12.4690512 99.0045614,12.7482105 C98.8213768,13.0273698 98.7297859,13.3709453 98.7297859,13.7789474 C98.7297859,14.4875825 98.9776202,15.0029458 99.4732961,15.3250526 C99.9689721,15.6471595 100.712475,15.9263146 101.703827,16.1625263 L103.869704,16.6778947 C104.92571,16.9141064 105.803905,17.3918911 106.504317,18.1112632 C107.204728,18.8306352 107.554929,19.7271525 107.554929,20.8008421 C107.554929,21.6168462 107.38791,22.3201023 107.053868,22.9106316 C106.719825,23.5011608 106.278034,23.9843139 105.72848,24.3601053 C105.178926,24.7358966 104.548565,25.0096834 103.837378,25.1814737 C103.126191,25.353264 102.404239,25.4391579 101.6715,25.4391579 C100.507739,25.4391579 99.4248113,25.2190548 98.4226839,24.7788421 C97.4205564,24.3386294 96.5639119,23.5816896 95.8527247,22.508 L97.6953369,21.2517895 C98.1263595,21.9389508 98.6705173,22.4865243 99.3278267,22.8945263 C99.9851361,23.3025284 100.766353,23.5065263 101.6715,23.5065263 C102.102523,23.5065263 102.533539,23.458211 102.964561,23.3615789 C103.395584,23.2649469 103.778111,23.1146326 104.112153,22.9106316 C104.446196,22.7066306 104.715581,22.4435806 104.920317,22.1214737 C105.125052,21.7993668 105.227419,21.4235811 105.227419,20.9941053 C105.227419,20.2425226 104.947258,19.7003175 104.386929,19.3674737 C103.826599,19.0346299 103.147749,18.7715799 102.350357,18.5783158 L100.281459,18.0951579 C100.022846,18.0307365 99.6726453,17.9233692 99.2308471,17.7730526 C98.789049,17.6227361 98.3580329,17.3972647 97.9377859,17.0966316 C97.5175389,16.7959985 97.1565629,16.4041077 96.8548471,15.9209474 C96.5531313,15.4377871 96.4022757,14.8418983 96.4022757,14.1332632 C96.4022757,13.3602067 96.558519,12.6837924 96.8710104,12.104 C97.1835018,11.5242076 97.6037424,11.0517913 98.1317451,10.6867368 C98.6597477,10.3216824 99.2577826,10.0478956 99.9258675,9.86536842 C100.593953,9.68284119 101.283578,9.59157895 101.994765,9.59157895 C103.050771,9.59157895 104.031332,9.79557691 104.93648,10.2035789 C105.841627,10.611581 106.542028,11.3094687 107.037704,12.2972632 L105.130439,13.5534737 Z" id="ezlines" fill="#0074E4"></path>
                <path d="M117.5,16.5 L117.5,25 L118,24.5 L117,24.5 L117.5,25 L117.5,16.5 Z M117.5,16.5 L117.5,8 L117,8.5 L118,8.5 L117.5,8 L117.5,16.5 Z" id="Rectangle-31" stroke="#979797" fill="#D8D8D8"></path>
                <path d="M129.231445,9.41796875 L129.231445,10.7167969 L130.134766,10.7167969 L130.134766,11.7519531 L129.231445,11.7519531 L129.231445,14.3886719 C129.231445,14.5839854 129.26888,14.7239579 129.34375,14.8085938 C129.41862,14.8932296 129.561848,14.9355469 129.773438,14.9355469 C129.929688,14.9355469 130.068033,14.9241538 130.188477,14.9013672 L130.188477,15.9707031 C129.911782,16.055339 129.626955,16.0976562 129.333984,16.0976562 C128.344396,16.0976562 127.839844,15.5979868 127.820312,14.5986328 L127.820312,11.7519531 L127.048828,11.7519531 L127.048828,10.7167969 L127.820312,10.7167969 L127.820312,9.41796875 L129.231445,9.41796875 Z M135.319648,12.0400391 C135.12759,12.0139973 134.958321,12.0009766 134.811836,12.0009766 C134.277979,12.0009766 133.928048,12.1816388 133.762031,12.5429688 L133.762031,16 L132.350898,16 L132.350898,10.7167969 L133.683906,10.7167969 L133.722969,11.3466797 C134.006173,10.8616512 134.398422,10.6191406 134.899727,10.6191406 C135.055977,10.6191406 135.20246,10.6402993 135.33918,10.6826172 L135.319648,12.0400391 Z M140.343398,16 C140.278294,15.8730462 140.231094,15.7151702 140.201797,15.5263672 C139.859998,15.9072285 139.415667,16.0976562 138.868789,16.0976562 C138.351208,16.0976562 137.922339,15.9479182 137.582168,15.6484375 C137.241997,15.3489568 137.071914,14.9713564 137.071914,14.515625 C137.071914,13.9557264 137.279431,13.5260432 137.694473,13.2265625 C138.109514,12.9270818 138.70928,12.7757162 139.493789,12.7724609 L140.143203,12.7724609 L140.143203,12.4697266 C140.143203,12.2255847 140.080541,12.0302742 139.955215,11.8837891 C139.829889,11.737304 139.632137,11.6640625 139.361953,11.6640625 C139.124322,11.6640625 138.937963,11.7210281 138.802871,11.8349609 C138.667779,11.9488938 138.600234,12.1051422 138.600234,12.3037109 L137.189101,12.3037109 C137.189101,11.9977198 137.283502,11.7145195 137.472305,11.4541016 C137.661108,11.1936836 137.928032,10.9894213 138.273086,10.8413086 C138.61814,10.6931959 139.005506,10.6191406 139.435195,10.6191406 C140.08624,10.6191406 140.602999,10.7827132 140.985488,11.1098633 C141.367977,11.4370134 141.559219,11.8968069 141.559219,12.4892578 L141.559219,14.7792969 C141.562474,15.2806015 141.63246,15.6598294 141.76918,15.9169922 L141.76918,16 L140.343398,16 Z M139.176406,15.0185547 C139.384741,15.0185547 139.576796,14.9721684 139.752578,14.8793945 C139.92836,14.7866206 140.058567,14.6621102 140.143203,14.5058594 L140.143203,13.5976562 L139.615859,13.5976562 C138.909476,13.5976562 138.533503,13.8417944 138.48793,14.3300781 L138.483047,14.4130859 C138.483047,14.5888681 138.544895,14.7337234 138.668594,14.8476562 C138.792292,14.9615891 138.961561,15.0185547 139.176406,15.0185547 Z M145.372031,10.7167969 L145.415976,11.3271484 C145.793582,10.8551409 146.299762,10.6191406 146.934531,10.6191406 C147.49443,10.6191406 147.911092,10.783527 148.184531,11.1123047 C148.45797,11.4410824 148.597943,11.9326139 148.604453,12.5869141 L148.604453,16 L147.19332,16 L147.19332,12.6210938 C147.19332,12.3216131 147.128217,12.1043301 146.998008,11.9692383 C146.867799,11.8341465 146.651329,11.7666016 146.348594,11.7666016 C145.951456,11.7666016 145.653608,11.9358707 145.455039,12.2744141 L145.455039,16 L144.043906,16 L144.043906,10.7167969 L145.372031,10.7167969 Z M153.965117,14.5400391 C153.965117,14.3675122 153.879669,14.2316086 153.708769,14.1323242 C153.53787,14.0330399 153.263621,13.9443363 152.886015,13.8662109 C151.629499,13.6025377 151.00125,13.0686889 151.00125,12.2646484 C151.00125,11.7958961 151.195747,11.4044612 151.584746,11.090332 C151.973745,10.7762029 152.482366,10.6191406 153.110625,10.6191406 C153.781201,10.6191406 154.317491,10.7770167 154.719512,11.0927734 C155.121532,11.4085302 155.322539,11.8186824 155.322539,12.3232422 L153.911406,12.3232422 C153.911406,12.1214183 153.846303,11.9545905 153.716094,11.8227539 C153.585885,11.6909173 153.382436,11.625 153.105742,11.625 C152.868111,11.625 152.684193,11.6787104 152.553984,11.7861328 C152.423775,11.8935552 152.358672,12.0302726 152.358672,12.1962891 C152.358672,12.3525398 152.432727,12.4786779 152.58084,12.574707 C152.728952,12.6707362 152.978787,12.7537431 153.330351,12.8237305 C153.681916,12.8937178 153.978137,12.9726558 154.219023,13.0605469 C154.96447,13.3339857 155.337187,13.8076138 155.337187,14.4814453 C155.337187,14.9632186 155.130484,15.3530259 154.71707,15.6508789 C154.303657,15.948732 153.769808,16.0976562 153.115508,16.0976562 C152.672797,16.0976562 152.279735,16.0187182 151.936308,15.8608398 C151.592882,15.7029615 151.323516,15.4864923 151.128203,15.2114258 C150.932889,14.9363593 150.835234,14.6393245 150.835234,14.3203125 L152.173125,14.3203125 C152.186146,14.5709648 152.278918,14.7630202 152.451445,14.8964844 C152.623972,15.0299486 152.855089,15.0966797 153.144804,15.0966797 C153.414988,15.0966797 153.61925,15.0454107 153.757597,14.9428711 C153.895944,14.8403315 153.965117,14.7060555 153.965117,14.5400391 Z M159.164648,16 L157.748633,16 L157.748633,8.5 L159.164648,8.5 L159.164648,16 Z M164.818281,16 C164.753176,15.8730462 164.705976,15.7151702 164.676679,15.5263672 C164.334881,15.9072285 163.890549,16.0976562 163.343672,16.0976562 C162.826091,16.0976562 162.397221,15.9479182 162.05705,15.6484375 C161.716879,15.3489568 161.546797,14.9713564 161.546797,14.515625 C161.546797,13.9557264 161.754314,13.5260432 162.169355,13.2265625 C162.584396,12.9270818 163.184162,12.7757162 163.968672,12.7724609 L164.618086,12.7724609 L164.618086,12.4697266 C164.618086,12.2255847 164.555423,12.0302742 164.430097,11.8837891 C164.304771,11.737304 164.107019,11.6640625 163.836836,11.6640625 C163.599204,11.6640625 163.412845,11.7210281 163.277754,11.8349609 C163.142662,11.9488938 163.075117,12.1051422 163.075117,12.3037109 L161.663984,12.3037109 C161.663984,11.9977198 161.758384,11.7145195 161.947187,11.4541016 C162.13599,11.1936836 162.402915,10.9894213 162.747968,10.8413086 C163.093022,10.6931959 163.480388,10.6191406 163.910078,10.6191406 C164.561123,10.6191406 165.077882,10.7827132 165.460371,11.1098633 C165.84286,11.4370134 166.034101,11.8968069 166.034101,12.4892578 L166.034101,14.7792969 C166.037356,15.2806015 166.107343,15.6598294 166.244062,15.9169922 L166.244062,16 L164.818281,16 Z M163.651289,15.0185547 C163.859623,15.0185547 164.051678,14.9721684 164.227461,14.8793945 C164.403243,14.7866206 164.53345,14.6621102 164.618086,14.5058594 L164.618086,13.5976562 L164.090742,13.5976562 C163.384358,13.5976562 163.008385,13.8417944 162.962812,14.3300781 L162.957929,14.4130859 C162.957929,14.5888681 163.019778,14.7337234 163.143476,14.8476562 C163.267175,14.9615891 163.436444,15.0185547 163.651289,15.0185547 Z M170.237539,9.41796875 L170.237539,10.7167969 L171.140859,10.7167969 L171.140859,11.7519531 L170.237539,11.7519531 L170.237539,14.3886719 C170.237539,14.5839854 170.274973,14.7239579 170.349843,14.8085938 C170.424714,14.8932296 170.567941,14.9355469 170.779531,14.9355469 C170.935782,14.9355469 171.074127,14.9241538 171.19457,14.9013672 L171.19457,15.9707031 C170.917876,16.055339 170.633048,16.0976562 170.340078,16.0976562 C169.350489,16.0976562 168.845937,15.5979868 168.826406,14.5986328 L168.826406,11.7519531 L168.054922,11.7519531 L168.054922,10.7167969 L168.826406,10.7167969 L168.826406,9.41796875 L170.237539,9.41796875 Z M174.84625,16 L173.430234,16 L173.430234,10.7167969 L174.84625,10.7167969 L174.84625,16 Z M173.347226,9.34960938 C173.347226,9.13801978 173.418026,8.96386787 173.559628,8.82714844 C173.701231,8.690429 173.8941,8.62207031 174.138242,8.62207031 C174.379128,8.62207031 174.571184,8.690429 174.714414,8.82714844 C174.857644,8.96386787 174.929257,9.13801978 174.929257,9.34960938 C174.929257,9.5644542 174.85683,9.74023369 174.711972,9.87695312 C174.567115,10.0136726 174.375873,10.0820312 174.138242,10.0820312 C173.90061,10.0820312 173.709369,10.0136726 173.564511,9.87695312 C173.419654,9.74023369 173.347226,9.5644542 173.347226,9.34960938 Z M177.218632,13.3095703 C177.218632,12.7854792 177.319543,12.3183614 177.521367,11.9082031 C177.723191,11.4980448 178.013715,11.1806652 178.392949,10.9560547 C178.772182,10.7314442 179.212445,10.6191406 179.71375,10.6191406 C180.426644,10.6191406 181.008506,10.8372374 181.459355,11.2734375 C181.910204,11.7096376 182.161666,12.3020796 182.21375,13.0507812 L182.223515,13.4121094 C182.223515,14.2226603 181.99728,14.8728817 181.544804,15.362793 C181.092328,15.8527043 180.485238,16.0976562 179.723515,16.0976562 C178.961793,16.0976562 178.353889,15.8535181 177.899785,15.3652344 C177.445681,14.8769507 177.218632,14.2128948 177.218632,13.3730469 L177.218632,13.3095703 Z M178.629765,13.4121094 C178.629765,13.913414 178.724165,14.2967109 178.912968,14.5620117 C179.101771,14.8273125 179.371951,14.9599609 179.723515,14.9599609 C180.065314,14.9599609 180.332238,14.8289401 180.524296,14.5668945 C180.716355,14.304849 180.812382,13.8857451 180.812382,13.3095703 C180.812382,12.8180314 180.716355,12.4371758 180.524296,12.1669922 C180.332238,11.8968085 180.062059,11.7617188 179.71375,11.7617188 C179.368696,11.7617188 179.101771,11.8959948 178.912968,12.1645508 C178.724165,12.4331068 178.629765,12.8489555 178.629765,13.4121094 Z M185.821484,10.7167969 L185.865429,11.3271484 C186.243035,10.8551409 186.749215,10.6191406 187.383984,10.6191406 C187.943882,10.6191406 188.360545,10.783527 188.633984,11.1123047 C188.907423,11.4410824 189.047395,11.9326139 189.053906,12.5869141 L189.053906,16 L187.642773,16 L187.642773,12.6210938 C187.642773,12.3216131 187.577669,12.1043301 187.44746,11.9692383 C187.317251,11.8341465 187.100782,11.7666016 186.798046,11.7666016 C186.400909,11.7666016 186.10306,11.9358707 185.904492,12.2744141 L185.904492,16 L184.493359,16 L184.493359,10.7167969 L185.821484,10.7167969 Z M130.40332,23.5400391 C130.40332,23.3675122 130.317872,23.2316086 130.146973,23.1323242 C129.976073,23.0330399 129.701825,22.9443363 129.324219,22.8662109 C128.067702,22.6025377 127.439453,22.0686889 127.439453,21.2646484 C127.439453,20.7958961 127.63395,20.4044612 128.022949,20.090332 C128.411949,19.7762029 128.92057,19.6191406 129.548828,19.6191406 C130.219404,19.6191406 130.755695,19.7770167 131.157715,20.0927734 C131.559735,20.4085302 131.760742,20.8186824 131.760742,21.3232422 L130.349609,21.3232422 C130.349609,21.1214183 130.284506,20.9545905 130.154297,20.8227539 C130.024088,20.6909173 129.820639,20.625 129.543945,20.625 C129.306314,20.625 129.122396,20.6787104 128.992188,20.7861328 C128.861979,20.8935552 128.796875,21.0302726 128.796875,21.1962891 C128.796875,21.3525398 128.87093,21.4786779 129.019043,21.574707 C129.167156,21.6707362 129.41699,21.7537431 129.768555,21.8237305 C130.120119,21.8937178 130.41634,21.9726558 130.657227,22.0605469 C131.402673,22.3339857 131.775391,22.8076138 131.775391,23.4814453 C131.775391,23.9632186 131.568687,24.3530259 131.155273,24.6508789 C130.74186,24.948732 130.208011,25.0976562 129.553711,25.0976562 C129.111,25.0976562 128.717938,25.0187182 128.374512,24.8608398 C128.031086,24.7029615 127.76172,24.4864923 127.566406,24.2114258 C127.371093,23.9363593 127.273438,23.6393245 127.273438,23.3203125 L128.611328,23.3203125 C128.624349,23.5709648 128.717122,23.7630202 128.889648,23.8964844 C129.062175,24.0299486 129.293293,24.0966797 129.583008,24.0966797 C129.853191,24.0966797 130.057454,24.0454107 130.195801,23.9428711 C130.334148,23.8403315 130.40332,23.7060555 130.40332,23.5400391 Z M136.545234,25.0976562 C135.770491,25.0976562 135.139801,24.8600284 134.653144,24.3847656 C134.166488,23.9095028 133.923164,23.2763711 133.923164,22.4853516 L133.923164,22.3486328 C133.923164,21.8180312 134.025702,21.3435893 134.230781,20.925293 C134.43586,20.5069966 134.726385,20.1847342 135.102363,19.9584961 C135.478342,19.732258 135.907211,19.6191406 136.388984,19.6191406 C137.111644,19.6191406 137.680486,19.8470029 138.095527,20.3027344 C138.510568,20.7584658 138.718086,21.4046182 138.718086,22.2412109 L138.718086,22.8173828 L135.353828,22.8173828 C135.399401,23.1624366 135.536932,23.4391266 135.766426,23.6474609 C135.995919,23.8557953 136.286444,23.9599609 136.638008,23.9599609 C137.18163,23.9599609 137.606431,23.7630228 137.912422,23.3691406 L138.605781,24.1455078 C138.394192,24.4449885 138.107736,24.6785473 137.746406,24.8461914 C137.385076,25.0138355 136.98469,25.0976562 136.545234,25.0976562 Z M136.384102,20.7617188 C136.104152,20.7617188 135.877104,20.8561188 135.702949,21.0449219 C135.528795,21.2337249 135.417305,21.5039045 135.368477,21.8554688 L137.331367,21.8554688 L137.331367,21.7431641 C137.324857,21.4306625 137.240222,21.1889657 137.077461,21.0180664 C136.9147,20.8471671 136.683582,20.7617188 136.384102,20.7617188 Z M143.917617,21.0400391 C143.725559,21.0139973 143.55629,21.0009766 143.409805,21.0009766 C142.875948,21.0009766 142.526016,21.1816388 142.36,21.5429688 L142.36,25 L140.948867,25 L140.948867,19.7167969 L142.281875,19.7167969 L142.320937,20.3466797 C142.604142,19.8616512 142.996391,19.6191406 143.497695,19.6191406 C143.653946,19.6191406 143.800429,19.6402993 143.937148,19.6826172 L143.917617,21.0400391 Z M148.091758,23.2763672 L149.073203,19.7167969 L150.547812,19.7167969 L148.765586,25 L147.41793,25 L145.635703,19.7167969 L147.110312,19.7167969 L148.091758,23.2763672 Z M154.087187,25 L152.671172,25 L152.671172,19.7167969 L154.087187,19.7167969 L154.087187,25 Z M152.588164,18.3496094 C152.588164,18.1380198 152.658964,17.9638679 152.800566,17.8271484 C152.942168,17.690429 153.135038,17.6220703 153.379179,17.6220703 C153.620066,17.6220703 153.812121,17.690429 153.955351,17.8271484 C154.098581,17.9638679 154.170195,18.1380198 154.170195,18.3496094 C154.170195,18.5644542 154.097767,18.7402337 153.95291,18.8769531 C153.808052,19.0136726 153.616811,19.0820312 153.379179,19.0820312 C153.141548,19.0820312 152.950307,19.0136726 152.805449,18.8769531 C152.660592,18.7402337 152.588164,18.5644542 152.588164,18.3496094 Z M158.876562,23.9599609 C159.13698,23.9599609 159.348567,23.8883471 159.511328,23.7451172 C159.674089,23.6018873 159.758724,23.4114595 159.765234,23.1738281 L161.088476,23.1738281 C161.085221,23.5319028 160.987566,23.8598618 160.795508,24.1577148 C160.603449,24.4555679 160.340594,24.6866854 160.006933,24.8510742 C159.673273,25.0154631 159.304624,25.0976562 158.900976,25.0976562 C158.145764,25.0976562 157.550067,24.857587 157.113867,24.3774414 C156.677667,23.8972958 156.45957,23.2340537 156.45957,22.3876953 L156.45957,22.2949219 C156.45957,21.4811157 156.676039,20.8317082 157.108984,20.3466797 C157.541929,19.8616512 158.135999,19.6191406 158.891211,19.6191406 C159.552021,19.6191406 160.081801,19.807127 160.480566,20.1831055 C160.879331,20.5590839 161.081966,21.0595672 161.088476,21.6845703 L159.765234,21.6845703 C159.758724,21.4111314 159.674089,21.1889657 159.511328,21.0180664 C159.348567,20.8471671 159.133725,20.7617188 158.866797,20.7617188 C158.538019,20.7617188 158.289812,20.8813465 158.122168,21.1206055 C157.954524,21.3598645 157.870703,21.7480442 157.870703,22.2851562 L157.870703,22.4316406 C157.870703,22.9752631 157.95371,23.3658842 158.119726,23.6035156 C158.285743,23.841147 158.538019,23.9599609 158.876562,23.9599609 Z M165.755781,25.0976562 C164.981037,25.0976562 164.350347,24.8600284 163.863691,24.3847656 C163.377035,23.9095028 163.133711,23.2763711 163.133711,22.4853516 L163.133711,22.3486328 C163.133711,21.8180312 163.236249,21.3435893 163.441328,20.925293 C163.646407,20.5069966 163.936931,20.1847342 164.31291,19.9584961 C164.688888,19.732258 165.117758,19.6191406 165.599531,19.6191406 C166.322191,19.6191406 166.891033,19.8470029 167.306074,20.3027344 C167.721115,20.7584658 167.928632,21.4046182 167.928632,22.2412109 L167.928632,22.8173828 L164.564375,22.8173828 C164.609948,23.1624366 164.747479,23.4391266 164.976972,23.6474609 C165.206466,23.8557953 165.49699,23.9599609 165.848554,23.9599609 C166.392177,23.9599609 166.816977,23.7630228 167.122968,23.3691406 L167.816328,24.1455078 C167.604738,24.4449885 167.318283,24.6785473 166.956953,24.8461914 C166.595623,25.0138355 166.195236,25.0976562 165.755781,25.0976562 Z M165.594648,20.7617188 C165.314699,20.7617188 165.08765,20.8561188 164.913496,21.0449219 C164.739341,21.2337249 164.627851,21.5039045 164.579023,21.8554688 L166.541914,21.8554688 L166.541914,21.7431641 C166.535403,21.4306625 166.450769,21.1889657 166.288007,21.0180664 C166.125246,20.8471671 165.894129,20.7617188 165.594648,20.7617188 Z" id="translation-service" fill="#848A8E"></path>
                <g id="Group-7" transform="translate(0.000000, 8.947368)" fill="#8C9093">
                    <path d="M2.91657143,9.14778947 C2.98122481,9.89937218 3.16440665,10.6079967 3.46612245,11.2736842 C3.76783824,11.9393717 4.16652813,12.5137871 4.66220408,12.9969474 C5.15788003,13.4801077 5.72897636,13.8612618 6.3755102,14.1404211 C7.02204405,14.4195803 7.72244521,14.5591579 8.47673469,14.5591579 C9.61894449,14.5591579 10.6048938,14.2961079 11.4346122,13.77 C12.2643307,13.2438921 12.8946917,12.6372666 13.3257143,11.9501053 L14.9743673,13.3029474 C14.06922,14.4410583 13.0724952,15.2570502 11.9841633,15.7509474 C10.8958313,16.2448446 9.72670013,16.4917895 8.47673469,16.4917895 C7.35607603,16.4917895 6.31624969,16.2931599 5.35722449,15.8958947 C4.39819929,15.4986296 3.573881,14.9456878 2.8842449,14.2370526 C2.1946088,13.5284175 1.65045097,12.6909522 1.2517551,11.7246316 C0.853059231,10.758311 0.653714286,9.70611095 0.653714286,8.568 C0.653714286,7.42988905 0.84767153,6.37768904 1.23559184,5.41136842 C1.62351214,4.4450478 2.16228227,3.60758249 2.85191837,2.89894737 C3.54155447,2.19031225 4.34970965,1.63737041 5.27640816,1.24010526 C6.20310667,0.842840119 7.2052191,0.644210526 8.28277551,0.644210526 C9.4249853,0.644210526 10.4486485,0.848208486 11.3537959,1.25621053 C12.2589433,1.66421257 13.0186092,2.20641767 13.6328163,2.88284211 C14.2470235,3.55926654 14.7157535,4.35378491 15.0390204,5.26642105 C15.3622873,6.17905719 15.5239184,7.15073169 15.5239184,8.18147368 L15.5239184,9.14778947 L2.91657143,9.14778947 Z M13.1964082,7.40842105 C13.1964082,5.96967702 12.7653921,4.8047413 11.9033469,3.91357895 C11.0413018,3.0224166 9.83445674,2.57684211 8.28277551,2.57684211 C7.59313941,2.57684211 6.92506446,2.71105129 6.27853061,2.97947368 C5.63199677,3.24789608 5.06628814,3.60757669 4.58138776,4.05852632 C4.09648737,4.50947594 3.70857288,5.02483921 3.41763265,5.60463158 C3.12669242,6.18442395 2.98122449,6.7856811 2.98122449,7.40842105 L13.1964082,7.40842105 Z" id="Combined-Shape"></path>
                    <path d="M32.2205713,14.1788266 L49.8410096,14.1788266 L49.8410096,16.1052632 L32.2205713,16.1052632 L19.9364896,16.1052632 L19.9364896,14.5591579 L28.793959,2.96336842 L20.389061,2.96336842 L20.389061,1.03073684 L31.8973059,1.03073684 L31.8973059,2.57684211 L23.0398366,14.1726316 L32.2205713,14.1726316 L32.2205713,14.1788266 Z" id="Combined-Shape"></path>
                </g>
                <rect id="Rectangle-12" fill="#8C9093" x="36.8163265" y="32.2105263" width="95.1836735" height="1.78947368"></rect>
            </g>
        </g>
    </g>
</svg>