<svg width="605" height="588" xmlns="http://www.w3.org/2000/svg" xmlns:xlink="http://www.w3.org/1999/xlink">
 <defs>
  <path class="ETuWXKHc_0" d="m417,177a15,15 0 0 1 30,0a15,15 0 0 1 -30,0z" id="elqna"/>
  <path class="ETuWXKHc_1" d="m20,872.1l52.67,-48.14l34.59,11.46l113.07,-270.52l120.74,41.21l90.09,-430.11l119.23,106.13l64.84,-31.03l61.05,155.49l57.72,-94.92" id="elqnb"/>
  <path class="ETuWXKHc_2" d="m391.95,281.9a3.25,3.25 0 0 0 -1.06,-1.23a2.8,2.8 0 0 0 -1.62,-0.45c-0.3,0 -0.6,0.04 -0.91,0.1c-0.31,0.08 -0.59,0.19 -0.84,0.34c-0.24,0.15 -0.44,0.34 -0.6,0.57c-0.14,0.23 -0.22,0.51 -0.22,0.85c0,0.58 0.2,1 0.61,1.27a6,6 0 0 0 1.83,0.7l1.77,0.42c0.87,0.2 1.59,0.59 2.16,1.18c0.58,0.59 0.87,1.33 0.87,2.21c0,0.67 -0.14,1.25 -0.42,1.74c-0.27,0.49 -0.63,0.88 -1.08,1.2c-0.45,0.3 -0.97,0.53 -1.55,0.67a7.5,7.5 0 0 1 -1.78,0.21c-0.95,0 -1.84,-0.18 -2.66,-0.54a4.92,4.92 0 0 1 -2.1,-1.87l1.5,-1.04c0.36,0.57 0.8,1.02 1.34,1.36c0.54,0.33 1.18,0.5 1.92,0.5c0.36,0 0.7,-0.04 1.06,-0.12c0.36,-0.08 0.67,-0.2 0.94,-0.37c0.28,-0.17 0.5,-0.38 0.67,-0.65c0.16,-0.27 0.25,-0.57 0.25,-0.93c0,-0.62 -0.23,-1.06 -0.7,-1.34a6.04,6.04 0 0 0 -1.66,-0.65l-1.7,-0.4c-0.2,-0.05 -0.5,-0.14 -0.86,-0.26s-0.71,-0.31 -1.06,-0.56a3.35,3.35 0 0 1 -0.89,-0.97c-0.24,-0.4 -0.37,-0.88 -0.37,-1.47a3.3,3.3 0 0 1 1.42,-2.84c0.43,-0.3 0.92,-0.52 1.47,-0.67a6.38,6.38 0 0 1 4.1,0.28c0.75,0.33 1.33,0.9 1.73,1.72l-1.56,1.04zm-20.19,2.69c0.05,0.62 0.2,1.2 0.45,1.75a4.63,4.63 0 0 0 2.38,2.37c0.53,0.23 1.1,0.34 1.72,0.34a4.4,4.4 0 0 0 2.42,-0.65c0.68,-0.43 1.2,-0.93 1.55,-1.5l1.35,1.12a6.71,6.71 0 0 1 -2.45,2.01a6.82,6.82 0 0 1 -5.42,0.12a5.98,5.98 0 0 1 -3.36,-3.43a6.79,6.79 0 0 1 -0.49,-2.6c0,-0.94 0.16,-1.8 0.48,-2.6a6.3,6.3 0 0 1 3.3,-3.44c0.76,-0.33 1.58,-0.49 2.46,-0.49c0.94,0 1.77,0.17 2.51,0.5a5.57,5.57 0 0 1 3.02,3.3c0.26,0.76 0.4,1.56 0.4,2.4l0,0.8l-10.32,0zm8.42,-1.43c0,-1.18 -0.35,-2.14 -1.06,-2.88c-0.7,-0.73 -1.7,-1.1 -2.96,-1.1a4.62,4.62 0 0 0 -3.98,2.5c-0.25,0.47 -0.37,0.97 -0.37,1.48l8.37,0zm-24.36,-5.25a12.83,12.83 0 0 1 0.08,1.99l0.06,0c0.2,-0.34 0.44,-0.65 0.74,-0.93a4.88,4.88 0 0 1 2.18,-1.2a4.6,4.6 0 0 1 1.23,-0.18c1.6,0 2.76,0.42 3.52,1.26c0.76,0.84 1.14,2.04 1.14,3.6l0,7.87l-1.75,0l0,-6.87c0,-1.38 -0.23,-2.43 -0.71,-3.17c-0.48,-0.73 -1.36,-1.1 -2.65,-1.1c-0.09,0 -0.33,0.04 -0.74,0.1c-0.4,0.08 -0.83,0.27 -1.28,0.6c-0.45,0.31 -0.85,0.79 -1.2,1.42a5.52,5.52 0 0 0 -0.54,2.66l0,6.36l-1.74,0l0,-9.68c0,-0.33 -0.02,-0.76 -0.04,-1.27l-0.1,-1.46l1.8,0zm-7.54,12.41l-1.76,0l0,-12.41l1.76,0l0,12.41zm0.4,-17.19c0,0.38 -0.14,0.68 -0.4,0.92c-0.27,0.24 -0.56,0.36 -0.88,0.36c-0.32,0 -0.61,-0.12 -0.88,-0.36c-0.26,-0.24 -0.4,-0.54 -0.4,-0.92c0,-0.37 0.14,-0.67 0.4,-0.91c0.27,-0.24 0.56,-0.36 0.88,-0.36c0.32,0 0.61,0.12 0.88,0.36c0.26,0.24 0.4,0.54 0.4,0.91zm-8.43,17.2l-1.76,0l0,-19.03l1.76,0l0,19.03z" id="elqnd"/>
  <path class="ETuWXKHc_3" d="m308.31,285.63c0.05,0.62 0.2,1.2 0.45,1.75a4.63,4.63 0 0 0 2.38,2.36c0.53,0.23 1.1,0.35 1.72,0.35a4.4,4.4 0 0 0 2.42,-0.65c0.68,-0.43 1.2,-0.93 1.55,-1.5l1.35,1.11a6.71,6.71 0 0 1 -2.45,2.02a6.82,6.82 0 0 1 -5.42,0.12a5.98,5.98 0 0 1 -3.36,-3.43a6.79,6.79 0 0 1 -0.49,-2.6c0,-0.94 0.16,-1.8 0.48,-2.6a6.3,6.3 0 0 1 3.3,-3.44c0.76,-0.33 1.58,-0.49 2.46,-0.49c0.94,0 1.77,0.17 2.51,0.5a5.58,5.58 0 0 1 3.02,3.3c0.26,0.76 0.4,1.56 0.4,2.4l0,0.8l-10.32,0zm18.73,-1.43c0,-1.18 -0.35,-2.14 -1.05,-2.88c-0.71,-0.73 -1.7,-1.1 -2.97,-1.1a4.62,4.62 0 0 0 -3.98,2.5c-0.24,0.47 -0.36,0.97 -0.36,1.48l8.36,0z" id="elqne"/>
  <path class="ETuWXKHc_4" d="m332.02,280.22l-7.25,9.55l7.51,0l0,0.01l14.42,0l0,1.58l-24.47,0l0,-1.27l7.25,-9.55l-6.88,0l0,-1.59l9.42,0l0,1.27z" id="elqnf"/>
  <path class="ETuWXKHc_5" d="m336.04,298.73l0,-1.47l77.88,0l0,1.47l-77.88,0z" id="elqng"/>
  <clipPath id="elqnc">
   <use id="svg_1" x="-135" y="-163" xlink:href="#elqna" fill="#fff"/>
  </clipPath>
 </defs>
 <style>.ETuWXKHc_0{stroke-dasharray:95 97;stroke-dashoffset:96;animation:ETuWXKHc_draw_0 11200ms ease-out 0ms infinite,ETuWXKHc_fade 11200ms linear 0ms infinite;}.ETuWXKHc_1{stroke-dasharray:1478 1480;stroke-dashoffset:1479;animation:ETuWXKHc_draw_1 11200ms ease-out 0ms infinite,ETuWXKHc_fade 11200ms linear 0ms infinite;}.ETuWXKHc_2{stroke-dasharray:292 294;stroke-dashoffset:293;animation:ETuWXKHc_draw_2 11200ms ease-out 0ms infinite,ETuWXKHc_fade 11200ms linear 0ms infinite;}.ETuWXKHc_3{stroke-dasharray:82 84;stroke-dashoffset:83;animation:ETuWXKHc_draw_3 11200ms ease-out 0ms infinite,ETuWXKHc_fade 11200ms linear 0ms infinite;}.ETuWXKHc_4{stroke-dasharray:93 95;stroke-dashoffset:94;animation:ETuWXKHc_draw_4 11200ms ease-out 0ms infinite,ETuWXKHc_fade 11200ms linear 0ms infinite;}.ETuWXKHc_5{stroke-dasharray:159 161;stroke-dashoffset:160;animation:ETuWXKHc_draw_5 11200ms ease-out 0ms infinite,ETuWXKHc_fade 11200ms linear 0ms infinite;}@keyframes ETuWXKHc_draw{100%{stroke-dashoffset:0;}}@keyframes ETuWXKHc_fade{0%{stroke-opacity:1;}96.42857142857143%{stroke-opacity:1;}100%{stroke-opacity:0;}}@keyframes ETuWXKHc_draw_0{7.142857142857142%{stroke-dashoffset: 96}48.8095238095238%{ stroke-dashoffset: 0;}100%{ stroke-dashoffset: 0;}}@keyframes ETuWXKHc_draw_1{11.30952380952381%{stroke-dashoffset: 1479}52.976190476190474%{ stroke-dashoffset: 0;}100%{ stroke-dashoffset: 0;}}@keyframes ETuWXKHc_draw_2{15.476190476190476%{stroke-dashoffset: 293}57.14285714285714%{ stroke-dashoffset: 0;}100%{ stroke-dashoffset: 0;}}@keyframes ETuWXKHc_draw_3{19.642857142857142%{stroke-dashoffset: 83}61.3095238095238%{ stroke-dashoffset: 0;}100%{ stroke-dashoffset: 0;}}@keyframes ETuWXKHc_draw_4{23.80952380952381%{stroke-dashoffset: 94}65.47619047619048%{ stroke-dashoffset: 0;}100%{ stroke-dashoffset: 0;}}@keyframes ETuWXKHc_draw_5{27.976190476190478%{stroke-dashoffset: 160}69.64285714285714%{ stroke-dashoffset: 0;}100%{ stroke-dashoffset: 0;}}</style>
 <g>
  <title>background</title>
  <rect fill="#ffffff" id="canvas_background" height="590" width="607" y="-1" x="-1"/>
 </g>
 <g>
  <title>Layer 1</title>
  <g id="svg_2">
   <g id="svg_3" clip-path="url(#clip-FE37C0EE-8208-43F6-88B8-4978D52268FE)">
    <use id="svg_4" x="-135" y="-162" xlink:href="#elqnb" stroke-width="13" stroke-miterlimit="50" stroke="#fff" fill-opacity="0" fill="#fff"/>
   </g>
   <g id="svg_5" clip-path="url(#clip-FE37C0EE-8208-43F6-88B8-4978D52268FE)">
    <use id="svg_6" x="-134.000046" y="-155" xlink:href="#elqna" fill="#0074e4"/>
    <use id="svg_7" x="-135" y="-163" xlink:href="#elqna" clip-path="url("#elqnc")" stroke-width="18" stroke-miterlimit="50" stroke="#fff" fill-opacity="0" fill="#fff"/>
    <ellipse ry="5.606218" rx="5.606218" id="svg_18" cy="21.801956" cx="297.722826" stroke-width="1.5" stroke="#0074e4" fill="#0074e4"/>
   </g>
   <g id="svg_8" transform="rotate(-78 195.4700012207031,287.3599853515625) " clip-path="url(#clip-FE37C0EE-8208-43F6-88B8-4978D52268FE)">
    <g id="svg_9">
     <use id="svg_10" xlink:href="#elqnd" fill="#fff"/>
    </g>
    <g id="svg_11">
     <g id="svg_12">
      <use id="svg_13" xlink:href="#elqne" fill="#fff"/>
     </g>
     <g id="svg_14">
      <use id="svg_15" xlink:href="#elqnf" fill="#fff"/>
     </g>
    </g>
    <g id="svg_16">
     <use id="svg_17" xlink:href="#elqng" fill="#fff"/>
    </g>
   </g>
  </g>
 </g>
</svg>